
<svg xmlns="http://www.w3.org/2000/svg" version="1.1" xmlns:xlink="http://www.w3.org/1999/xlink" preserveAspectRatio="none" x="0px" y="0px" width="395px" height="395px" viewBox="0 0 395 395">
<defs>
<g id="Layer1_0_FILL">
<path fill="#FFFFFF" fill-opacity="0.8" stroke="none" d="
M 393.05 197.5
Q 393.05 162.1 382.1 131.2 368 91.45 335.75 59.2 278.5 1.95 197.5 1.95 116.5 1.95 59.2 59.2 27 91.45 12.9 131.2 12.5 132.35 12.1 133.5 1.95 163.4 1.95 197.5 1.95 231.6 12.1 261.5 12.5 262.65 12.9 263.8 27 303.55 59.2 335.75 116.5 393.05 197.5 393.05 278.5 393.05 335.75 335.75 368 303.55 382.1 263.8 393.05 232.9 393.05 197.5
M 197.5 91.3
L 197.5 91.4 179.85 113 233.3 166.45 278.9 120.85 372.5 197.55 278.85 274.05 247.85 243.1 303.65 197.55 303.5 197.55 281.95 179.85 233.3 228.45 202.25 197.5 202.3 197.5 120.9 116.05 197.5 22.5 274 116.1 243.1 147.1 197.5 91.3
M 91.3 197.4
L 91.35 197.4 113 215.1 161.6 166.45 274 278.9 197.4 372.5 120.9 278.8 151.85 247.9 197.4 303.65 197.4 303.55 215.1 281.95 161.65 228.5 116.05 274.05 22.5 197.4 116.1 120.85 147.1 151.85 91.3 197.4 Z"/>

<path fill="#3B82F6" stroke="none" d="
M 91.35 197.4
L 91.3 197.4 147.1 151.85 116.1 120.85 22.5 197.4 116.05 274.05 161.65 228.5 215.1 281.95 197.4 303.55 197.4 303.65 151.85 247.9 120.9 278.8 197.4 372.5 274 278.9 161.6 166.45 113 215.1 91.35 197.4 Z"/>

<path fill="#1E3A8A" stroke="none" d="
M 197.5 91.4
L 197.5 91.3 243.1 147.1 274 116.1 197.5 22.5 120.9 116.05 202.3 197.5 202.25 197.5 233.3 228.45 281.95 179.85 303.5 197.55 303.65 197.55 247.85 243.1 278.85 274.05 372.5 197.55 278.9 120.85 233.3 166.45 179.85 113 197.5 91.4 Z"/>
</g>
</defs>

<g transform="matrix( 1, 0, 0, 1, 0,0) ">
<use xlink:href="#Layer1_0_FILL"/>
</g>
</svg>
