
<svg xmlns="http://www.w3.org/2000/svg" version="1.1" xmlns:xlink="http://www.w3.org/1999/xlink" preserveAspectRatio="none" x="0px" y="0px" width="211px" height="211px" viewBox="0 0 211 211">
<defs>
<g id="Layer0_0_FILL">
<path fill="#3B82F6" stroke="none" d="
M 75.1 78
L 56.45 59.3 0 105.45 56.4 151.65 83.9 124.2 116.1 156.4 105.45 169.45 105.45 169.5 105.4 169.45 78 135.9 59.3 154.5 105.45 211 151.6 154.55 83.85 86.8 54.55 116.1 41.5 105.45 75.1 78 Z"/>

<path fill="#1E3A8A" stroke="none" d="
M 169.4 105.55
L 169.5 105.55 135.85 133 154.55 151.65 211 105.55 154.55 59.3 127.1 86.8 94.85 54.55 105.5 41.55 105.5 41.5 105.55 41.5 133 75.1 151.6 56.45 105.5 0 59.3 56.4 108.4 105.5 108.35 105.5 127.1 124.15 156.4 94.85 169.4 105.55 Z"/>
</g>
</defs>

<g transform="matrix( 1, 0, 0, 1, 0,0) ">
<use xlink:href="#Layer0_0_FILL"/>
</g>
</svg>
