
<svg xmlns="http://www.w3.org/2000/svg" version="1.1" xmlns:xlink="http://www.w3.org/1999/xlink" preserveAspectRatio="none" x="0px" y="0px" width="355px" height="435px" viewBox="0 0 355 435">
<defs>
<g id="Layer1_0_FILL">
<path fill="#333333" stroke="none" d="
M 239.9 374.4
L 225.65 374.4 225.65 413.75
Q 225.6 415.15 224.6 416.15 223.6 417.15 222.2 417.25
L 213.05 417.25
Q 211.65 417.2 210.65 416.15 209.8 415.3 209.65 414.15
L 209.65 374.4 195.35 374.4 195.35 425.1
Q 195.6 427.6 197.45 429.4 199.5 431.5 202.5 431.5
L 232.75 431.5
Q 235.7 431.5 237.8 429.4 239.9 427.35 239.9 424.35
L 239.9 374.4
M 225.65 424.9
Q 225.653515625 425.0642578125 225.7 425.25
L 225.65 425.25 225.65 424.9
M 242.5 374.4
L 242.5 395.8 272.8 417.25 256.8 417.25 256.8 410.1 242.5 410.1 242.5 424.55
Q 242.55 427.4 244.6 429.4 246.7 431.5 249.65 431.5
L 287.05 431.5 287.05 410.1 256.8 388.65 272.8 388.65 272.8 395.8 287.05 395.8 287.05 374.4 242.5 374.4
M 190.65 376.5
Q 188.6 374.5 185.8 374.4
L 148.2 374.4 148.2 431.5 185.6 431.5
Q 188.55 431.5 190.65 429.4 192.7 427.35 192.7 424.35
L 192.8 424.35 192.8 381.55 192.7 381.55
Q 192.7 378.55 190.65 376.5
M 162.45 388.65
L 175.65 388.65
Q 176.7 388.85 177.5 389.65 178.3 390.45 178.5 391.5
L 178.5 414.4
Q 178.3 415.45 177.5 416.25 176.7 417.05 175.65 417.25
L 162.45 417.25 162.45 388.65
M 115.25 395.8
L 115.25 388.65 145.5 388.65 145.5 374.4 100.95 374.4 100.95 431.5 145.5 431.5 145.5 417.25 115.25 417.25 115.25 410.1 131.25 410.1 131.25 395.8 115.25 395.8
M 131.3 425.25
L 131.25 425.25 131.25 424.9
Q 131.253515625 425.0642578125 131.3 425.25
M 67.9 395.8
L 67.9 374.4 53.65 374.4 53.65 431.5 67.9 431.5 67.9 410.1 83.85 410.1 83.85 424.55
Q 83.85 424.9 83.9 425.25
L 83.85 425.25
Q 83.85 425.7 83.85 426.1
L 83.85 431.5 98.15 431.5 98.15 374.4 83.85 374.4 83.85 395.8 67.9 395.8
M 6.5 374.4
L 6.5 395.8 36.75 417.25 20.75 417.25 20.75 410.1 6.5 410.1 6.5 424.55
Q 6.55 427.4 8.6 429.4 10.65 431.5 13.65 431.5
L 51 431.5 51 410.1 20.75 388.65 36.75 388.65 36.75 395.8 51 395.8 51 374.4 6.5 374.4
M 348.5 374.4
L 334.2 374.4 334.2 417.25 326.2 417.25 326.2 374.4 311.95 374.4 311.95 417.25 303.9 417.25 303.9 374.4 289.65 374.4 289.65 431.5 342.7 431.5
Q 344.85 431.15 346.45 429.55 348.1 427.85 348.45 425.6
L 348.45 425.5
Q 348.45 425.3 348.5 425.1
L 348.5 423.6
Q 348.45 423.4 348.45 423.25
L 348.5 423.25 348.5 382.65 348.45 382.65
Q 348.45 382.45 348.5 382.3
L 348.5 380.8
Q 348.45 380.6 348.45 380.4
L 348.5 380.4 348.5 374.4
M 296.75 417.25
Q 296.85 417.25 296.95 417.25
L 296.95 417.3 296.55 417.25
Q 296.65 417.25 296.75 417.25 Z"/>

<path fill="#3B82F6" stroke="none" d="
M 73.85 174.9
L 73.8 174.9 128.3 130.4 98 100.15 6.55 174.9 97.95 249.8 142.5 205.3 194.75 257.5 177.45 278.6 177.45 278.7 132.95 224.25 102.7 254.45 177.45 345.95 252.3 254.55 142.45 144.7 95 192.2 73.85 174.9 Z"/>

<path fill="#1E3A8A" stroke="none" d="
M 177.55 71.35
L 177.55 71.25 222.1 125.75 252.3 95.5 177.55 4.05 102.7 95.45 182.25 175 182.2 175 212.5 205.25 260.05 157.75 281.1 175.05 281.25 175.05 226.75 219.55 257 249.8 348.5 175.05 257.05 100.15 212.5 144.7 160.3 92.45 177.55 71.35 Z"/>
</g>
</defs>

<g transform="matrix( 1, 0, 0, 1, 0,0) ">
<use xlink:href="#Layer1_0_FILL"/>
</g>
</svg>
