
<svg xmlns="http://www.w3.org/2000/svg" version="1.1" xmlns:xlink="http://www.w3.org/1999/xlink" preserveAspectRatio="none" x="0px" y="0px" width="100px" height="100px" viewBox="0 0 100 100">
<defs>
<g id="Layer0_0_FILL">
<path fill="#5A048A" stroke="none" d="
M 33 82.85
L 33 82.9 33 99.5 34.2 99.5
Q 41.3 99.35 47.2 96.55
L 47.3 96.45
Q 48.8 95.75 50 94.95
L 52.05 93.6
Q 54.25 92 55.95 90.25 59.7 86.4 61.85 82.2 64.9 76.3 65.35 68.9
L 65.35 66
Q 65.1 61.5 63.85 57.45
L 59.45 60.1 50 75.85 47.9 72.55
Q 43.65 82.5 33 82.85
M 4 47.75
L 4.1 47.85
Q 4.9 49.5 5.7 50.65
L 7 52.55
Q 8.5 54.65 10.4 56.55 14.05 60.1 18.35 62.5 24.5 65.6 31.65 65.85
L 34.5 65.85
Q 38.7 65.65 43 64.4
L 40.5 60.1 24.7 50.45 28 48.5
Q 18.1 44.2 17.65 33.5
L 1 33.5 1 34.8
Q 1.2 41.6 4 47.75
M 66.95 18.1
L 66.95 1.5 65.7 1.5
Q 58.8 1.65 52.75 4.45 52.65 4.45 52.65 4.6 51.6 5.05 49.9 6.1
L 47.9 7.4
Q 45.8 8.9 44 10.85 40.35 14.5 38 18.9 34.9 24.9 34.65 32.05
L 34.65 35.05
Q 34.8 39.5 36.1 43.55
L 40.4 41 50 25.2 52.05 28.55
Q 56.25 18.65 66.95 18.1
M 89.75 44.5
Q 86.1 40.9 81.7 38.6 75.8 35.55 68.4 35.1
L 65.55 35.1
Q 61.15 35.35 57.05 36.65
L 59.55 41 75.4 50.45 72.05 52.55
Q 82 56.8 82.35 67.45
L 82.35 67.55 82.45 67.55 99 67.55 99 66.25
Q 98.85 59.25 96.05 53.3
L 95.95 53.1 93.1 48.5
Q 91.65 46.4 89.75 44.5 Z"/>

<path fill="#A811C5" stroke="none" d="
M 33 82.9
L 33 82.85 33 68.6
Q 18.25 68.4 7.15 59.35
L 7.15 78.05
Q 19.1 83.65 33 82.9
M 17.65 33.5
L 31.95 33.5
Q 32.15 18.85 41.15 7.75
L 22.4 7.75
Q 17.05 19.5 17.65 33.5
M 55.55 45.1
L 50 36.05 44.6 45.1 35.55 50.55 44.6 56 50 64.95 55.55 56 64.5 50.55 55.55 45.1
M 92.7 41.65
L 92.7 22.95
Q 80.9 17.45 66.95 18.1
L 66.95 32.45
Q 81.85 32.7 92.7 41.65
M 82.35 67.55
L 82.35 67.45 68.15 67.45
Q 67.95 82.3 58.9 93.3
L 77.65 93.3
Q 83.1 81.4 82.45 67.55
L 82.35 67.55 Z"/>
</g>
</defs>

<g transform="matrix( 1, 0, 0, 1, 0,0) ">
<use xlink:href="#Layer0_0_FILL"/>
</g>
</svg>
