
<svg xmlns="http://www.w3.org/2000/svg" version="1.1" xmlns:xlink="http://www.w3.org/1999/xlink" preserveAspectRatio="none" x="0px" y="0px" width="380px" height="100px" viewBox="0 0 380 100">
<defs>
<g id="Layer1_0_FILL">
<path fill="#5A048A" stroke="none" d="
M 72.05 63.5
Q 71.85 59.35 70.65 55.55
L 66.6 57.95 57.75 72.7 55.85 69.55
Q 51.9 78.75 41.9 79.2
L 41.9 79.25 41.9 94.7
Q 42.05 94.7 42.2 94.7
L 43.1 94.7
Q 49.6 94.55 55.15 91.9 55.25 91.9 55.3 91.85 56.65 91.15 57.8 90.4 58.75 89.8 59.65 89.15 61.6 87.8 63.35 86.05 66.75 82.55 68.85 78.55 71.75 72.95 72.05 66.2 72.05 65.6 72.05 64.9 72.05 64.15 72.05 63.5
M 12.15 34.4
Q 12.35 40.9 14.95 46.45 14.95 46.55 15 46.6 15.7 47.95 16.5 49.15 17.05 50.1 17.7 50.95 19.1 52.9 20.85 54.65 24.35 58.05 28.3 60.2 33.95 63.1 40.65 63.35 41.3 63.35 41.95 63.35 42.7 63.35 43.35 63.35 47.5 63.15 51.3 61.95
L 48.9 57.95 34.2 49.05 37.3 47.15
Q 28.1 43.25 27.65 33.25
L 27.65 33.2 12.15 33.2
Q 12.15 33.35 12.15 33.55
L 12.15 34.4
M 73.25 3.4
L 72.4 3.4
Q 65.9 3.6 60.35 6.2 60.25 6.2 60.2 6.3 58.85 6.95 57.65 7.75 56.7 8.3 55.85 8.95 53.9 10.35 52.15 12.1 48.75 15.6 46.6 19.6 43.7 25.2 43.45 31.9 43.45 32.55 43.45 33.25 43.45 33.95 43.45 34.65 43.65 38.8 44.85 42.6
L 48.85 40.2 57.75 25.45 59.65 28.6
Q 63.55 19.4 73.55 18.9
L 73.6 18.9 73.6 3.4
Q 73.45 3.4 73.25 3.4
M 97.95 47.15
Q 96.55 45.2 94.8 43.45 91.3 40.05 87.3 37.95 81.7 35.05 74.95 34.75 74.35 34.75 73.65 34.75 72.9 34.75 72.25 34.75 68.1 34.95 64.3 36.15
L 66.7 40.2 81.45 49.05 78.3 50.95
Q 87.5 54.9 87.95 64.85
L 87.95 64.9 88 64.9 103.45 64.9
Q 103.45 64.75 103.45 64.55
L 103.45 63.7
Q 103.3 57.2 100.65 51.65 100.65 51.55 100.6 51.5 99.9 50.15 99.15 49 98.55 48.05 97.95 47.15
M 130.65 19.6
L 122.55 19.6 109.15 50.7 117.35 50.7 124.45 34.1 132.2 50.7 140.65 50.7 130.4 29.05 126.65 29.05 130.65 19.6
M 171.6 23.3
L 171.6 21.1 143.75 21.1 143.75 23.3 153.45 23.3 153.45 47.9 142.05 47.9 142.05 50.1 172.65 50.1 172.65 47.9 161.65 47.9 161.65 23.3 171.6 23.3
M 190.3 23.9
L 190.3 21.7 181.25 21.7 181.8 19.3 176.5 19.3 174.7 27.1 180.05 27.1 180.6 24.65 180.6 27.7 175.4 27.7 175.4 29.95 179.95 29.95 175.45 36.7 182.3 36.7 183.3 34.8 184.3 36.7 191.2 36.7 187.2 29.95 190.65 29.95 190.65 27.7 187.6 27.7 187.6 23.9 190.3 23.9
M 232.35 34.95
L 225.15 34.95 225.15 50.6 237.75 50.6 237.75 48.2 232.35 48.2 232.35 41.35 237.75 40.05 237.75 37.55 232.35 38.85 232.35 34.95
M 217.05 48.45
L 215.9 48.45 215.9 50.6 223.95 50.6 223.95 33.45
Q 223.95 32.6 223.35 32 222.8 31.4 221.95 31.4
L 207.75 31.4 207.75 50.6 214.65 50.6 214.65 44.85 217.05 44.85 217.05 48.45
M 217.05 34.25
L 217.05 37 214.65 37 214.65 33.55 216.35 33.55
Q 217.05 33.55 217.05 34.25
M 214.65 39.2
L 217.05 39.2 217.05 42.65 214.65 42.65 214.65 39.2
M 203.45 39.65
Q 203.45 38.8 202.9 38.15 202.3 37.55 201.45 37.55
L 177.5 37.55 177.5 50.65 203.45 50.65 203.45 39.65
M 185.7 48.45
L 185.7 45.25 195.3 45.25 195.3 48.45 185.7 48.45
M 185.7 43.05
L 185.7 39.75 194.65 39.75
Q 195.3 39.75 195.3 40.45
L 195.3 43.05 185.7 43.05
M 204.15 22.2
Q 203.55 21.6 202.75 21.6
L 191.25 21.6 191.25 35.75 204.75 35.75 204.75 23.6
Q 204.75 22.8 204.15 22.2
M 197.25 23.8
L 198 23.8
Q 198.7 23.8 198.7 24.45
L 198.7 33.55 197.25 33.55 197.25 23.8
M 222.65 22.2
L 216.95 22.2 218 26.65 215.3 26.95 217.4 19.6 210.6 19.6 208.3 27.65 206.85 27.8 207.05 30.25 218.6 28.95 218.85 30.25 224.5 30.25 222.65 22.2
M 237.75 24.7
L 237.75 22.2 232.35 23.5 232.35 19.6 225.15 19.6 225.15 34 237.75 34 237.75 31.55 232.35 31.55 232.35 26.1 237.75 24.7
M 260.4 25.3
L 267.1 25.3 268.8 19.55 262.05 19.55 260.4 25.3
M 274.4 49
L 282.35 49 287.4 37.05 279.8 37.05 274.4 49
M 243.45 25.3
L 250.45 25.3 248.55 19.55 241.75 19.55 243.45 25.3
M 253.65 35.7
Q 253.95 35.7 254.1 35.9 254.3 36.1 254.3 36.4 254.3 36.55 254.15 36.8
L 251.3 40.25 239.05 40.25 239.05 43.05 250.75 43.05 250.75 47.55 248.8 47.55 248.8 50.7 258.1 50.7 258.1 43.05 269.65 43.05 269.65 40.25 260 40.25 264.6 35.2
Q 264.95 34.75 264.95 34.3 264.95 33.75 264.55 33.35 264.15 32.95 263.55 32.95
L 243.5 32.95 243.5 35.7 253.65 35.7
M 262.05 29.2
L 262.05 31.85 269.6 31.85 269.6 28.4
Q 269.6 27.55 269 26.95 268.35 26.35 267.55 26.35
L 240.2 26.35 240.2 31.85 247.75 31.85 247.75 28.55 261.35 28.55
Q 262.05 28.55 262.05 29.2
M 257.25 19.55
L 250.5 19.55 252.15 25.3 259.15 25.3 257.25 19.55
M 287.3 35
L 284.15 25.25 276.65 25.25 279.65 35 287.3 35
M 301.3 22.6
Q 301.3 21.75 300.75 21.15 300.1 20.55 299.3 20.55
L 273.8 20.55 273.8 22.8 292.4 22.8
Q 293.1 22.8 293.1 23.45
L 293.1 48.15 290.75 48.15 290.75 50.5 301.3 50.5 301.3 22.6
M 313.3 24.45
L 306.45 24.45 307.6 33.95 314.7 33.95 313.3 24.45
M 333.7 24.45
L 326.75 24.45 325.4 33.95 332.45 33.95 333.7 24.45
M 334.15 22.45
L 334.15 20.25 305.75 20.25 305.75 22.45 315.8 22.45 315.8 36.1 304.65 36.1 304.65 38.25 315.8 38.25 315.8 50.6 324.05 50.6 324.05 38.25 335.25 38.25 335.25 36.1 324.05 36.1 324.05 22.45 334.15 22.45
M 364.25 22.45
L 356.15 22.45 358.05 29.35 347.6 30.25 352.3 19.6 344.1 19.6 338.6 31.1 337.45 31.2 337.7 33.55 358.65 31.5 359.3 33.9 367.45 33.9 364.25 22.45
M 366.05 37.15
Q 366.05 36.25 365.45 35.7 364.9 35.1 364 35.1
L 339.35 35.1 339.35 50.7 366.05 50.7 366.05 37.15
M 347.5 48.55
L 347.5 37.3 357.25 37.3
Q 357.9 37.3 357.9 37.95
L 357.9 48.55 347.5 48.55 Z"/>

<path fill="#A811C5" stroke="none" d="
M 17.9 57.3
L 17.9 74.75
Q 28.95 79.85 41.9 79.25
L 41.9 79.2 41.9 65.9
Q 28.15 65.7 17.9 57.3
M 40.95 33.25
Q 41.15 19.45 49.55 9.25
L 32.1 9.25
Q 27.05 20.25 27.65 33.2
L 27.7 33.2 27.7 33.25 40.95 33.25
M 57.75 35.6
L 52.7 44.05 44.35 49.1 52.7 54.15 57.75 62.55 62.9 54.15 71.25 49.1 62.9 44.05 57.75 35.6
M 97.55 40.85
L 97.55 23.35
Q 86.55 18.3 73.6 18.9
L 73.6 18.95 73.55 18.95 73.55 32.25
Q 87.35 32.4 97.55 40.85
M 87.95 64.9
L 87.95 64.85 74.65 64.85
Q 74.45 78.65 66.05 88.9
L 83.5 88.9
Q 88.6 77.85 88 64.9
L 87.95 64.9 Z"/>

<path fill="#000000" stroke="none" d="
M 125.7 64.15
L 124.65 64.15 124.65 78.6 125.7 78.6 125.7 64.15
M 142.85 64.15
L 141.8 64.15 141.8 78.6 150.35 78.6 150.35 77.55 142.85 77.55 142.85 64.15
M 116.05 64.15
L 114.55 64.15
Q 113.85 66 113.15 67.8 112.45 69.55 111.75 71.35 111.05 73.1 110.4 74.95 109.7 76.7 109 78.6
L 110.1 78.6
Q 110.5 77.5 110.95 76.3 111.4 75.05 111.8 73.95
L 118.9 73.95 120.65 78.6 121.95 78.6 116.05 64.15
M 118.6 73.1
L 112.05 73.1 115.25 65.1 118.6 73.1
M 211.65 64.15
L 210.55 64.15 210.55 78.6 211.65 78.6 211.65 64.15
M 226.95 64.15
L 225.9 64.15 225.9 77.3 217.15 64.15 215.7 64.15 215.7 78.6 216.75 78.6 216.75 65.4 225.55 78.6 226.95 78.6 226.95 64.15
M 162.7 71.6
L 162.7 70.55 154.25 70.55 154.25 65.2 163.25 65.2 163.25 64.15 153.2 64.15 153.2 78.6 163.65 78.6 163.65 77.55 154.25 77.55 154.25 71.6 162.7 71.6
M 169.5 67.8
Q 168.8 69.55 168.1 71.35 167.4 73.1 166.75 74.95 166.05 76.7 165.35 78.6
L 166.45 78.6
Q 166.85 77.5 167.3 76.3 167.75 75.05 168.15 73.95
L 175.25 73.95 177 78.6 178.3 78.6 172.4 64.15 170.9 64.15
Q 170.2 66 169.5 67.8
M 168.4 73.1
L 171.6 65.1 174.95 73.1 168.4 73.1
M 196.65 64.15
L 195.2 64.15 195.2 78.6 196.25 78.6 196.25 65.4 205.05 78.6 206.45 78.6 206.45 64.15 205.4 64.15 205.4 77.3 196.65 64.15
M 191.35 66.05
Q 190.95 65.3 190.3 64.9 189.65 64.45 188.8 64.3 187.95 64.15 187.05 64.15
L 180.5 64.15 180.5 78.6 181.55 78.6 181.55 72.05 186.65 72.05
Q 187.25 72.05 187.65 72.3 188.1 72.5 188.45 72.85 188.8 73.2 189.05 73.7 189.3 74.2 189.5 74.75
L 190.95 78.6 192.1 78.6 190.6 74.65
Q 190.45 74.15 190.3 73.75 190.1 73.35 189.95 73.05 189.75 72.7 189.5 72.4 189.2 72.1 188.8 71.8 189.55 71.65 190.1 71.3 190.65 70.95 191.05 70.45 191.4 69.95 191.6 69.35 191.75 68.7 191.75 67.95 191.75 66.8 191.35 66.05
M 189.7 65.85
Q 190.65 66.5 190.65 67.95 190.65 68.8 190.4 69.4 190.2 70 189.7 70.35 189.2 70.7 188.4 70.85 187.65 71 186.6 71
L 181.55 71 181.55 65.2 186.9 65.2
Q 188.75 65.2 189.7 65.85
M 307.15 65.2
L 307.15 64.15 296.05 64.15 296.05 65.2 301.05 65.2 301.05 78.6 302.1 78.6 302.1 65.2 307.15 65.2
M 310.85 70.6
L 310.85 65.2 319.15 65.2 319.15 64.15 309.8 64.15 309.8 78.6 310.85 78.6 310.85 71.65 318.05 71.65 318.05 70.6 310.85 70.6
M 243.2 78.6
L 243.2 71.55 238.15 71.55 238.15 72.6 242.15 72.6 242.15 75.2
Q 241.25 76.45 239.9 77.1 238.6 77.8 236.8 77.8 235.5 77.8 234.45 77.4 233.4 76.95 232.65 76.1 231.85 75.25 231.45 74.1 231.05 72.85 231.05 71.35 231.05 69.75 231.45 68.6 231.85 67.35 232.65 66.55 233.4 65.75 234.45 65.35 235.5 64.95 236.8 64.95 237.8 64.95 238.65 65.2 239.5 65.45 240.15 65.85 240.8 66.25 241.2 66.85 241.6 67.4 241.7 68.05
L 242.85 68.05
Q 242.65 67.1 242.15 66.35 241.6 65.55 240.8 65.05 240 64.45 238.95 64.2 237.95 63.9 236.75 63.9 235.2 63.9 234 64.4 232.7 64.9 231.85 65.9 230.9 66.85 230.4 68.25 229.9 69.6 229.9 71.35 229.9 73.05 230.4 74.4 230.9 75.8 231.8 76.8 232.7 77.75 234 78.3 235.25 78.85 236.8 78.85 237.6 78.85 238.3 78.75 239.05 78.6 239.75 78.35 240.4 78.1 241 77.7 241.65 77.25 242.15 76.65
L 242.6 78.6 243.2 78.6
M 282.05 78.6
L 283.15 78.6
Q 283.55 77.5 284 76.3 284.45 75.05 284.85 73.95
L 291.95 73.95 293.7 78.6 295 78.6 289.1 64.15 287.6 64.15
Q 286.9 66 286.2 67.8 285.5 69.55 284.8 71.35 284.1 73.1 283.45 74.95 282.75 76.7 282.05 78.6
M 285.1 73.1
L 288.3 65.1 291.65 73.1 285.1 73.1
M 267.5 64.95
Q 266.75 64.5 265.75 64.3 264.8 64.15 263.75 64.15
L 258.45 64.15 258.45 78.6 259.5 78.6 259.5 72.5 263.85 72.5
Q 266.45 72.5 267.8 71.4 269.1 70.3 269.1 68.15 269.1 66.95 268.7 66.2 268.2 65.4 267.5 64.95
M 266.75 65.75
Q 267.35 66.05 267.65 66.65 268 67.25 268 68.2 268 69 267.8 69.6 267.55 70.2 267.05 70.6 266.55 71 265.8 71.2 265 71.45 263.9 71.45
L 259.5 71.45 259.5 65.2 263.85 65.2
Q 264.65 65.2 265.45 65.3 266.2 65.4 266.75 65.75
M 273.25 64.15
L 272.2 64.15 272.2 78.6 280.7 78.6 280.7 77.55 273.25 77.55 273.25 64.15
M 333.3 65.9
Q 332.4 64.95 331.1 64.4 329.9 63.9 328.4 63.9 326.9 63.9 325.65 64.4 324.4 64.95 323.5 65.9 322.6 66.85 322.1 68.25 321.55 69.6 321.55 71.35 321.55 73 322.05 74.4 322.6 75.75 323.5 76.75 324.4 77.75 325.65 78.3 326.9 78.85 328.4 78.85 329.9 78.85 331.15 78.3 332.4 77.75 333.3 76.75 334.2 75.75 334.7 74.4 335.2 73 335.2 71.35 335.2 69.65 334.7 68.25 334.2 66.9 333.3 65.9
M 330.7 65.35
Q 331.7 65.75 332.5 66.6 333.25 67.4 333.7 68.6 334.1 69.75 334.1 71.35 334.1 72.85 333.7 74.1 333.25 75.25 332.5 76.1 331.7 76.95 330.7 77.4 329.65 77.8 328.4 77.8 327.15 77.8 326.1 77.4 325.05 76.95 324.3 76.1 323.55 75.25 323.1 74.1 322.7 72.85 322.7 71.35 322.7 69.75 323.15 68.6 323.55 67.4 324.3 66.6 325.05 65.8 326.15 65.35 327.2 64.95 328.4 64.95 329.65 64.95 330.7 65.35
M 354.4 64.15
L 352.9 64.15 352.9 78.6 353.95 78.6 353.95 65.9 359.15 78.6 360.25 78.6 365.45 65.9 365.45 78.6 366.5 78.6 366.5 64.15 365 64.15 359.7 77.25 354.4 64.15
M 346.5 64.3
Q 345.65 64.15 344.75 64.15
L 338.25 64.15 338.25 78.6 339.3 78.6 339.3 72.05 344.35 72.05
Q 344.95 72.05 345.4 72.3 345.85 72.5 346.15 72.85 346.5 73.2 346.8 73.7 347.05 74.2 347.25 74.75
L 348.7 78.6 349.85 78.6 348.35 74.65
Q 348.15 74.15 348 73.75 347.85 73.35 347.65 73.05 347.5 72.7 347.2 72.4 346.95 72.1 346.55 71.8 347.25 71.65 347.85 71.3 348.4 70.95 348.8 70.45 349.1 69.95 349.3 69.35 349.5 68.7 349.5 67.95 349.5 66.8 349.1 66.05 348.7 65.3 348 64.9 347.35 64.45 346.5 64.3
M 347.45 65.85
Q 348.35 66.5 348.35 67.95 348.35 68.8 348.15 69.4 347.9 70 347.4 70.35 346.9 70.7 346.15 70.85 345.4 71 344.3 71
L 339.3 71 339.3 65.2 344.6 65.2
Q 346.5 65.2 347.45 65.85 Z"/>
</g>
</defs>

<g transform="matrix( 1, 0, 0, 1, 0,0) ">
<use xlink:href="#Layer1_0_FILL"/>
</g>
</svg>
