
<svg xmlns="http://www.w3.org/2000/svg" version="1.1" xmlns:xlink="http://www.w3.org/1999/xlink" preserveAspectRatio="none" x="0px" y="0px" width="500px" height="500px" viewBox="0 0 500 500">
<defs>
<g id="Layer0_0_FILL">
<path fill="#FFFFFF" stroke="none" d="
M 321 250.15
L 277.1 223.55 250 179.05 223.45 223.55 179.3 250.15 223.45 277 250 320.95 277.1 277 321 250.15
M 91.5 166.65
L 161.65 166.65
Q 162.45 94.75 206.6 40.25
L 114.9 40.25
Q 88.6 97.95 91.5 166.65
M 10 166.65
L 10 172.95
Q 11.05 206.45 24.75 236.45
L 25.25 237
Q 29.2 245.15 33.1 250.65
L 39.45 260.15
Q 46.8 270.4 56 279.6 73.85 297.05 94.9 308.85 118.8 320.9 145.6 324.15 152.75 325 160.1 325.2
L 174.05 325.2
Q 194.55 324.4 215.8 318.05
L 203.5 297.05 126.2 249.85 142.25 240.15
Q 93.85 219.05 91.5 166.65
L 10 166.65
M 325.15 340.2
L 325.15 326
Q 323.9 303.85 317.8 284.1
L 296.25 297.05 250 374.45 239.75 358.1
Q 219 406.8 166.7 408.65
L 166.7 338.9
Q 155.95 338.75 145.6 337.65 86.35 331.25 40.25 293.35
L 40.25 385.2
Q 89.45 408.3 145.6 409.35 156.05 409.5 166.7 408.95
L 166.7 490.3 172.7 490.3
Q 207.45 489.5 236.35 475.85
L 236.85 475.3
Q 244.25 471.9 250 467.9
L 259.95 461.35
Q 270.75 453.45 279.15 445 297.6 426.05 308.1 405.5 323.1 376.55 325.15 340.2
M 340.2 174.6
L 326.25 174.6
Q 304.7 175.65 284.4 182.2
L 296.8 203.55 374.35 249.85 358.05 260.15
Q 406.65 280.95 408.5 333.1
L 338.85 333.1
Q 337.8 406 293.65 460
L 385.4 460
Q 412.2 401.55 409.05 333.65
L 490 333.65 490 327.3
Q 489.2 292.8 475.55 263.8
L 475 262.75 461.1 240.15
Q 454 229.85 444.8 220.65 426.95 203 405.35 191.65 376.45 176.65 340.2 174.6
M 459.25 114.8
Q 401.4 87.9 333.1 91.1
L 333.1 161.4
Q 405.9 162.7 459.25 206.65
L 459.25 114.8
M 333.1 9.7
L 327 9.7
Q 293.1 10.5 263.45 24.2 262.85 24.2 262.85 25 257.9 27.1 249.45 32.4
L 239.75 38.7
Q 229.5 46.05 220.55 55.55 202.7 73.45 191.15 95.05 176.15 124.5 174.85 159.55
L 174.85 174.3
Q 175.6 196.15 181.95 215.9
L 202.95 203.55 250 125.85 259.95 142.45
Q 280.5 93.7 333.1 91.1
L 333.1 9.7 Z"/>
</g>
</defs>

<g transform="matrix( 1, 0, 0, 1, 0,0) ">
<use xlink:href="#Layer0_0_FILL"/>
</g>
</svg>
