
<svg xmlns="http://www.w3.org/2000/svg" version="1.1" xmlns:xlink="http://www.w3.org/1999/xlink" preserveAspectRatio="none" x="0px" y="0px" width="211px" height="211px" viewBox="0 0 211 211">
<defs>
<g id="Layer0_0_FILL">
<path fill="#002FA7" stroke="none" d="
M 191.35 19.55
Q 181.1 9.2 168.3 4.25 160.35 1.2 151.5 0.4 151.2 0.4 151 0.3 150.05 0.2 149.05 0.2 146.65 0 144.2 0
L 66.8 0
Q 64.25 0 61.8 0.2 60.8 0.2 59.85 0.3 59.7 0.3 59.6 0.4 59.2 0.4 58.8 0.45 36.15 2.85 19.55 19.55 1.8 37.35 0.15 61.85 0 64.3 0 66.8
L 0 144.2
Q 0 146.7 0.15 149.15 1.65 171.5 16.5 188.2 17.35 189.1 18.15 189.95 18.8 190.7 19.55 191.4 23.5 195.4 27.75 198.55 41.8 208.95 59.5 210.65 59.7 210.65 59.95 210.7 60.95 210.75 61.9 210.8 64.3 211 66.8 211
L 144.2 211
Q 146.75 211 149.2 210.8 150.05 210.75 151.05 210.7
L 151.15 210.7
Q 151.3 210.65 151.55 210.65 174.6 208.35 191.35 191.4
L 191.45 191.4
Q 197.1 185.8 201.15 179.4 203.85 175.15 205.8 170.5 205.85 170.35 205.9 170.25 210.1 160.4 210.8 149.1 211 146.6 211 144.2
L 211 66.8
Q 211 64.25 210.8 61.85 210.1 50.4 205.8 40.45 200.95 29.05 191.45 19.6
L 191.35 19.55
M 174.85 80.05
Q 174.85 78.45 174.7 76.85 174.2 68.3 170.55 60.95 167.45 54.5 162 49 151.45 38.55 137.45 36.65 137.1 36.6 136.9 36.55 136.3 36.45 135.85 35.95 135.15 35.35 135.15 34.35 135.15 34 135.25 33.75
L 138.55 25.7
Q 138.6 25.65 138.6 25.6
L 138.8 25.2
Q 139 24.95 139.15 24.7 139.8 24.1 140.6 24 140.65 24 140.75 24 140.8 24 140.9 24.05 141.05 24.05 141.2 24.05 141.35 24.1 141.6 24.15 159.15 26 172.1 38.95 185.8 52.7 187.05 71.75 187.2 73.65 187.2 75.5
L 187.2 93.7 199.05 105.55 187.2 117.4 187.2 135.45
Q 187.2 137.35 187.05 139.25 185.8 158.3 172.1 172.1 159.15 185.05 141.6 186.9 141.35 186.95 141.2 186.95 141.05 186.95 140.9 187 140.8 187 140.75 187 140.65 187 140.6 187 139.8 186.95 139.15 186.3 139 186.1 138.8 185.8
L 138.55 185.3 135.25 177.3
Q 135.15 177 135.15 176.65 135.15 175.7 135.85 175.1 136.3 174.6 136.9 174.45 137.1 174.4 137.45 174.35 151.45 172.45 162 161.95 167.45 156.5 170.55 150.1 174.2 142.7 174.7 134.15 174.85 132.55 174.85 130.95
L 174.85 80.05
M 165.8 80.55
Q 165.9 81.95 165.9 83.4
L 165.9 88.6
Q 165.9 88.95 165.85 89.2 165.6 90.65 164.5 91.75 163.3 92.9 161.65 93.1
L 143.5 93.1
Q 141.85 92.9 140.65 91.75 140.05 91.2 139.75 90.55 139.45 90 139.35 89.45 139.3 89.2 139.25 88.95 139.15 88.35 139.05 87.8 137.7 82.15 133.35 77.8 133.3 77.8 133.3 77.75 127.6 72 119.65 71.5 118.85 71.5 118.1 71.5
L 93 71.5
Q 92.25 71.5 91.5 71.5 89.25 71.6 87.2 72.2 87 72.25 86.8 72.3 86.2 72.45 85.6 72.7 84.15 73.3 83.3 74.45 82.6 75.6 82.6 77 82.6 78.1 83.05 79 83.65 80.2 85.4 81.2
L 163.65 116.35
Q 165.85 117.3 165.9 119.7
L 165.9 127.65
Q 165.9 129.1 165.8 130.45 165.25 138.9 161.35 145.95 158.75 150.6 154.7 154.65 144.5 164.85 130.45 165.75 129.1 165.85 127.75 165.85
L 83.35 165.85
Q 82.75 165.85 82.2 165.85 81.35 165.85 80.6 165.75 76.75 165.5 73.2 164.55 63.75 162.05 56.4 154.65
L 56.35 154.65
Q 46.15 144.5 45.3 130.5 45.2 129.1 45.2 127.65
L 45.2 122.45
Q 45.2 122.15 45.25 121.85 45.5 120.45 46.6 119.35 47.8 118.1 49.4 117.9
L 67.55 117.9
Q 69.25 118.1 70.45 119.35 71 119.9 71.35 120.55 71.6 121.05 71.7 121.55 71.8 121.9 71.85 122.15 71.95 122.75 72.1 123.25 73.4 128.9 77.7 133.25
L 77.75 133.3
Q 83.5 139 91.4 139.55 92.25 139.6 93 139.6
L 118.05 139.6
Q 118.85 139.6 119.6 139.55 121.8 139.45 123.9 138.9 124.1 138.8 124.25 138.75 124.85 138.55 125.5 138.4 126.95 137.75 127.75 136.55 128.45 135.45 128.45 134.05 128.45 133 128.05 132.05 127.45 130.85 125.65 129.85
L 47.45 94.7
Q 45.25 93.7 45.2 91.35
L 45.2 83.4
Q 45.2 81.95 45.3 80.55 45.85 72.15 49.75 65.15 52.35 60.4 56.4 56.35 66.55 46.2 80.6 45.3 81.95 45.2 83.35 45.2
L 127.75 45.2
Q 128.3 45.2 128.9 45.2 129.7 45.2 130.45 45.3 134.35 45.55 137.95 46.45 147.3 48.95 154.7 56.35
L 154.75 56.35
Q 164.9 66.55 165.8 80.55
M 70.35 24
Q 70.4 24 70.5 24 71.3 24.1 71.9 24.7 72.1 24.95 72.3 25.2
L 72.45 25.6
Q 72.5 25.65 72.5 25.7
L 75.85 33.75
Q 75.9 34 75.9 34.35 75.9 35.35 75.25 35.95 74.8 36.45 74.15 36.55 73.9 36.6 73.7 36.65 59.6 38.55 49.1 49
L 49.05 49
Q 43.6 54.5 40.5 60.95 36.9 68.3 36.35 76.85 36.2 78.45 36.2 80.05
L 36.2 130.95
Q 36.2 132.55 36.35 134.15 36.9 142.7 40.5 150.1 43.6 156.5 49.05 161.95
L 49.1 161.95
Q 59.6 172.45 73.7 174.35 73.9 174.4 74.15 174.45 74.8 174.6 75.25 175.1 75.9 175.7 75.9 176.65 75.9 177 75.85 177.3
L 72.5 185.3
Q 72.5 185.4 72.45 185.4
L 72.3 185.8
Q 72.1 186.1 71.9 186.3 71.3 186.95 70.5 187 70.4 187 70.35 187 70.25 187 70.2 187 70 186.95 69.9 186.95 69.75 186.95 69.45 186.9 51.95 185.05 39 172.1 25.2 158.3 23.95 139.25 23.85 137.35 23.85 135.45
L 23.85 117.4 12 105.5 23.85 93.7 23.85 75.5
Q 23.85 73.65 23.95 71.75 25.2 52.7 39 38.95 51.95 26 69.45 24.15 69.75 24.1 69.9 24.05 70 24.05 70.2 24.05 70.25 24 70.35 24 Z"/>

<path fill="#FFFFFF" stroke="none" d="
M 70.5 24
Q 70.4 24 70.35 24 70.25 24 70.2 24.05 70 24.05 69.9 24.05 69.75 24.1 69.45 24.15 51.95 26 39 38.95 25.2 52.7 23.95 71.75 23.85 73.65 23.85 75.5
L 23.85 93.7 12 105.5 23.85 117.4 23.85 135.45
Q 23.85 137.35 23.95 139.25 25.2 158.3 39 172.1 51.95 185.05 69.45 186.9 69.75 186.95 69.9 186.95 70 186.95 70.2 187 70.25 187 70.35 187 70.4 187 70.5 187 71.3 186.95 71.9 186.3 72.1 186.1 72.3 185.8
L 72.45 185.4
Q 72.5 185.4 72.5 185.3
L 75.85 177.3
Q 75.9 177 75.9 176.65 75.9 175.7 75.25 175.1 74.8 174.6 74.15 174.45 73.9 174.4 73.7 174.35 59.6 172.45 49.1 161.95
L 49.05 161.95
Q 43.6 156.5 40.5 150.1 36.9 142.7 36.35 134.15 36.2 132.55 36.2 130.95
L 36.2 80.05
Q 36.2 78.45 36.35 76.85 36.9 68.3 40.5 60.95 43.6 54.5 49.05 49
L 49.1 49
Q 59.6 38.55 73.7 36.65 73.9 36.6 74.15 36.55 74.8 36.45 75.25 35.95 75.9 35.35 75.9 34.35 75.9 34 75.85 33.75
L 72.5 25.7
Q 72.5 25.65 72.45 25.6
L 72.3 25.2
Q 72.1 24.95 71.9 24.7 71.3 24.1 70.5 24
M 165.9 83.4
Q 165.9 81.95 165.8 80.55 164.9 66.55 154.75 56.35
L 154.7 56.35
Q 147.3 48.95 137.95 46.45 134.35 45.55 130.45 45.3 129.7 45.2 128.9 45.2 128.3 45.2 127.75 45.2
L 83.35 45.2
Q 81.95 45.2 80.6 45.3 66.55 46.2 56.4 56.35 52.35 60.4 49.75 65.15 45.85 72.15 45.3 80.55 45.2 81.95 45.2 83.4
L 45.2 91.35
Q 45.25 93.7 47.45 94.7
L 125.65 129.85
Q 127.45 130.85 128.05 132.05 128.45 133 128.45 134.05 128.45 135.45 127.75 136.55 126.95 137.75 125.5 138.4 124.85 138.55 124.25 138.75 124.1 138.8 123.9 138.9 121.8 139.45 119.6 139.55 118.85 139.6 118.05 139.6
L 93 139.6
Q 92.25 139.6 91.4 139.55 83.5 139 77.75 133.3
L 77.7 133.25
Q 73.4 128.9 72.1 123.25 71.95 122.75 71.85 122.15 71.8 121.9 71.7 121.55 71.6 121.05 71.35 120.55 71 119.9 70.45 119.35 69.25 118.1 67.55 117.9
L 49.4 117.9
Q 47.8 118.1 46.6 119.35 45.5 120.45 45.25 121.85 45.2 122.15 45.2 122.45
L 45.2 127.65
Q 45.2 129.1 45.3 130.5 46.15 144.5 56.35 154.65
L 56.4 154.65
Q 63.75 162.05 73.2 164.55 76.75 165.5 80.6 165.75 81.35 165.85 82.2 165.85 82.75 165.85 83.35 165.85
L 127.75 165.85
Q 129.1 165.85 130.45 165.75 144.5 164.85 154.7 154.65 158.75 150.6 161.35 145.95 165.25 138.9 165.8 130.45 165.9 129.1 165.9 127.65
L 165.9 119.7
Q 165.85 117.3 163.65 116.35
L 85.4 81.2
Q 83.65 80.2 83.05 79 82.6 78.1 82.6 77 82.6 75.6 83.3 74.45 84.15 73.3 85.6 72.7 86.2 72.45 86.8 72.3 87 72.25 87.2 72.2 89.25 71.6 91.5 71.5 92.25 71.5 93 71.5
L 118.1 71.5
Q 118.85 71.5 119.65 71.5 127.6 72 133.3 77.75 133.3 77.8 133.35 77.8 137.7 82.15 139.05 87.8 139.15 88.35 139.25 88.95 139.3 89.2 139.35 89.45 139.45 90 139.75 90.55 140.05 91.2 140.65 91.75 141.85 92.9 143.5 93.1
L 161.65 93.1
Q 163.3 92.9 164.5 91.75 165.6 90.65 165.85 89.2 165.9 88.95 165.9 88.6
L 165.9 83.4
M 174.7 76.85
Q 174.85 78.45 174.85 80.05
L 174.85 130.95
Q 174.85 132.55 174.7 134.15 174.2 142.7 170.55 150.1 167.45 156.5 162 161.95 151.45 172.45 137.45 174.35 137.1 174.4 136.9 174.45 136.3 174.6 135.85 175.1 135.15 175.7 135.15 176.65 135.15 177 135.25 177.3
L 138.55 185.3 138.8 185.8
Q 139 186.1 139.15 186.3 139.8 186.95 140.6 187 140.65 187 140.75 187 140.8 187 140.9 187 141.05 186.95 141.2 186.95 141.35 186.95 141.6 186.9 159.15 185.05 172.1 172.1 185.8 158.3 187.05 139.25 187.2 137.35 187.2 135.45
L 187.2 117.4 199.05 105.55 187.2 93.7 187.2 75.5
Q 187.2 73.65 187.05 71.75 185.8 52.7 172.1 38.95 159.15 26 141.6 24.15 141.35 24.1 141.2 24.05 141.05 24.05 140.9 24.05 140.8 24 140.75 24 140.65 24 140.6 24 139.8 24.1 139.15 24.7 139 24.95 138.8 25.2
L 138.6 25.6
Q 138.6 25.65 138.55 25.7
L 135.25 33.75
Q 135.15 34 135.15 34.35 135.15 35.35 135.85 35.95 136.3 36.45 136.9 36.55 137.1 36.6 137.45 36.65 151.45 38.55 162 49 167.45 54.5 170.55 60.95 174.2 68.3 174.7 76.85 Z"/>
</g>
</defs>

<g transform="matrix( 1, 0, 0, 1, 0,0) ">
<use xlink:href="#Layer0_0_FILL"/>
</g>
</svg>
