
<svg xmlns="http://www.w3.org/2000/svg" version="1.1" xmlns:xlink="http://www.w3.org/1999/xlink" preserveAspectRatio="none" x="0px" y="0px" width="328px" height="328px" viewBox="0 0 328 328">
<defs>
<g id="Layer2_0_FILL">
<path fill="#002FA7" stroke="none" d="
M 102.45 21.6
Q 102.35 21.6 102.15 21.6 101.95 21.65 101.65 21.65 101.4 21.7 100.9 21.75 70.3 25.05 47.7 47.65 23.65 71.75 21.45 105 21.25 108.3 21.25 111.65
L 21.25 143.3 0.55 164 21.25 184.7 21.25 216.4
Q 21.25 219.7 21.45 223 23.65 256.25 47.7 280.4 70.3 302.95 100.9 306.25 101.4 306.3 101.65 306.35 101.95 306.4 102.15 306.4 102.35 306.4 102.45 306.4 102.55 306.4 102.75 306.4 104.15 306.3 105.2 305.25 105.55 304.85 105.85 304.3
L 106.2 303.65
Q 106.2 303.6 106.25 303.5
L 112.1 289.45
Q 112.2 288.95 112.2 288.35 112.2 286.75 111 285.55 110.25 284.75 109.2 284.5 108.75 284.5 108.25 284.4 83.7 281.05 65.4 262.7
L 65.35 262.7
Q 55.8 253.15 50.35 241.9 44.1 229.1 43.1 214.05 42.9 211.3 42.9 208.45
L 42.9 119.55
Q 42.9 116.75 43.1 113.95 44.1 98.95 50.35 86.1 55.8 74.85 65.35 65.3
L 65.4 65.3
Q 83.7 46.95 108.25 43.6 108.75 43.55 109.2 43.5 110.25 43.25 111 42.45 112.2 41.3 112.2 39.65 112.2 39.05 112.1 38.55
L 106.25 24.5
Q 106.2 24.4 106.2 24.35
L 105.85 23.7
Q 105.55 23.15 105.2 22.75 104.15 21.7 102.75 21.6 102.55 21.6 102.45 21.6
M 250 78.15
L 249.95 78.1
Q 237.05 65.2 220.65 60.8 214.4 59.15 207.6 58.75 206.2 58.6 204.75 58.6 203.8 58.55 202.75 58.55
L 125.3 58.55
Q 122.85 58.55 120.45 58.75 95.9 60.35 78.15 78.1
L 78.1 78.1
Q 71 85.2 66.5 93.4 59.65 105.7 58.7 120.4 58.55 122.85 58.55 125.35
L 58.55 139.25
Q 58.65 143.4 62.5 145.15
L 199.15 206.55
Q 202.2 208.3 203.3 210.45 204 212.05 204 213.9 204 216.35 202.75 218.3 201.35 220.4 198.85 221.45 197.8 221.8 196.7 222.1 196.4 222.2 196.05 222.3 192.5 223.25 188.6 223.55 187.25 223.6 185.9 223.6
L 142.15 223.6
Q 140.7 223.6 139.35 223.55 125.5 222.6 115.5 212.6 115.5 212.55 115.45 212.5 107.85 204.9 105.45 195.05 105.25 194.1 105.1 193.05 105 192.6 104.9 192.1 104.7 191.15 104.25 190.3 103.65 189.15 102.7 188.2 100.55 186.05 97.7 185.75
L 65.95 185.75
Q 63.1 186.05 61 188.2 59.1 190.05 58.65 192.55 58.55 193.1 58.55 193.65
L 58.55 202.7
Q 58.55 205.25 58.7 207.7 60.3 232.15 78.05 249.95
L 78.1 250
Q 91 262.85 107.4 267.25 113.65 268.9 120.4 269.3 121.85 269.45 123.25 269.45 124.25 269.5 125.3 269.5
L 202.75 269.5
Q 205.2 269.5 207.6 269.3 232.15 267.75 249.9 250
L 249.95 250
Q 257.05 242.85 261.55 234.7 268.35 222.35 269.3 207.65 269.5 205.25 269.5 202.7
L 269.5 188.8
Q 269.4 184.65 265.5 182.9
L 128.9 121.5
Q 125.8 119.8 124.75 117.6 124 116 124 114.2 124 111.7 125.25 109.75 126.7 107.65 129.2 106.6 130.25 106.25 131.35 105.95 131.65 105.85 132 105.8 135.55 104.8 139.45 104.55 140.75 104.45 142.15 104.45
L 185.9 104.45
Q 187.3 104.45 188.7 104.55 202.5 105.45 212.5 115.45 212.55 115.5 212.6 115.55 220.2 123.15 222.55 133.05 222.8 134 222.95 135 223.05 135.45 223.1 135.95 223.35 136.9 223.8 137.8 224.35 138.9 225.35 139.9 227.45 142 230.35 142.3
L 262.05 142.3
Q 264.95 142 267.05 139.9 268.95 138 269.35 135.55 269.5 134.95 269.5 134.4
L 269.5 125.35
Q 269.5 122.85 269.35 120.35 267.75 95.9 250 78.15
M 262.7 65.3
Q 272.2 74.85 277.7 86.1 283.95 98.95 284.9 113.95 285.1 116.75 285.1 119.55
L 285.1 208.45
Q 285.1 211.3 284.9 214.05 283.95 229.1 277.7 241.9 272.2 253.15 262.7 262.7
L 262.65 262.7
Q 244.35 281.05 219.75 284.4 219.25 284.5 218.85 284.5 217.75 284.75 217 285.55 215.8 286.75 215.8 288.35 215.8 288.95 215.9 289.45
L 221.75 303.5
Q 221.8 303.6 221.8 303.65
L 222.15 304.3
Q 222.45 304.85 222.8 305.25 223.85 306.3 225.3 306.4 225.45 306.4 225.55 306.4 225.7 306.4 225.9 306.4 226.1 306.4 226.35 306.35 226.6 306.3 227.1 306.25 257.7 302.95 280.3 280.4 304.4 256.25 306.55 223 306.75 219.7 306.75 216.4
L 306.75 184.8 327.45 164.1 306.75 143.4 306.75 111.65
Q 306.75 108.3 306.55 105 304.4 71.75 280.3 47.65 257.7 25.05 227.1 21.75 226.6 21.7 226.35 21.65 226.1 21.65 225.9 21.6 225.7 21.6 225.55 21.6 225.45 21.6 225.3 21.6 223.85 21.7 222.8 22.75 222.45 23.15 222.15 23.7
L 221.8 24.35
Q 221.8 24.4 221.75 24.5
L 215.9 38.55
Q 215.8 39.05 215.8 39.65 215.8 41.3 217 42.45 217.75 43.25 218.85 43.5 219.25 43.55 219.75 43.6 244.35 46.95 262.65 65.3
L 262.7 65.3 Z"/>
</g>
</defs>

<g transform="matrix( 1, 0, 0, 1, 0,0) ">
<use xlink:href="#Layer2_0_FILL"/>
</g>
</svg>
