
<svg xmlns="http://www.w3.org/2000/svg" version="1.1" xmlns:xlink="http://www.w3.org/1999/xlink" preserveAspectRatio="none" x="0px" y="0px" width="378px" height="185px" viewBox="0 0 378 185">
<defs>
<g id="Layer0_0_FILL">
<path fill="#6700F3" stroke="none" d="
M 161.1 182.5
L 81 4.35 1 182.5 161.1 182.5 Z"/>

<path fill="#D00094" stroke="none" d="
M 224.95 2.5
L 301 123.45 377 2.5 224.95 2.5 Z"/>

<path fill="#F9006F" stroke="none" d="
M 300.95 123.45
L 263.2 182.5 338.65 182.5 300.95 123.45 Z"/>

<path fill="#8E00CF" stroke="none" d="
M 173.65 135.75
L 170.7 131.05 170.7 182.5 203.05 182.5 173.65 135.75 Z"/>

<path fill="#7A00E2" stroke="none" d="
M 222.05 22.05
Q 200.75 2.5 170.7 2.5
L 170.7 131.05 173.65 135.75
Q 201.8 134.8 222.05 116.2 243.25 96.75 243.25 69.2 243.25 41.5 222.05 22.05 Z"/>
</g>
</defs>

<g transform="matrix( 1, 0, 0, 1, 0,0) ">
<use xlink:href="#Layer0_0_FILL"/>
</g>
</svg>
