
<svg xmlns="http://www.w3.org/2000/svg" version="1.1" xmlns:xlink="http://www.w3.org/1999/xlink" preserveAspectRatio="none" x="0px" y="0px" width="179px" height="179px" viewBox="0 0 179 179">
<defs>
<g id="Layer0_0_FILL">
<path fill="#FFFFFF" stroke="none" d="
M 174.1 89.45
Q 174.1 84.9 171.7 81.4 170.85 80.15 169.75 79.05 168.85 78.15 167.9 77.45 168.75 78.05 169.55 78.8
L 128.45 37.7
Q 124.15 33.4 118 33.35 111.9 33.35 107.55 37.7 103.25 42 103.25 48.1 103.3 54.25 107.6 58.55
L 123.8 74.75 19.65 74.75
Q 13.55 74.75 9.2 79.05 4.9 83.4 4.9 89.5 4.9 95.6 9.2 99.9 13.55 104.25 19.65 104.25
L 123.8 104.25 107.6 120.45
Q 103.3 124.75 103.25 130.9 103.25 137 107.6 141.35 111.9 145.65 118 145.65 124.15 145.6 128.45 141.3
L 169.55 100.25
Q 167.55 102.15 165.2 103.1 167.65 102 169.75 99.9 171.9 97.75 173.05 95.2 174.1 92.6 174.1 89.55
L 174.1 89.45 Z"/>
</g>
</defs>

<g transform="matrix( 1, 0, 0, 1, 0,0) ">
<use xlink:href="#Layer0_0_FILL"/>
</g>
</svg>
