
<svg xmlns="http://www.w3.org/2000/svg" version="1.1" xmlns:xlink="http://www.w3.org/1999/xlink" preserveAspectRatio="none" x="0px" y="0px" width="440px" height="120px" viewBox="0 0 440 120">
<defs>
<g id="Layer0_0_FILL">
<path fill="#333333" stroke="none" d="
M 139.25 36.1
Q 138.2 36.1 138.05 36.1
L 138 36.1
Q 134 36.2 130.7 36.95 128.3 37.45 126.3 38.3 121.2 40.5 118.55 43.95 116.2 47.1 115.95 50.8
L 115.95 52.05
Q 115.95 52.65 116.05 53.15
L 116.05 53.2
Q 116.15 53.55 116.2 53.9 116.3 54.25 116.45 54.6
L 116.4 54.6
Q 116.5 54.7 116.55 54.85
L 116.55 54.9 116.6 54.9 116.65 55
Q 116.85 55.4 117.1 55.8 117.15 55.85 117.2 55.9 119 58.7 122.15 60.75
L 122.1 60.75
Q 125.6 63 130.7 64.3 133.4 64.95 136.05 65.5 138.9 66.05 141.25 66.7 141.55 66.8 142 66.85 143.6 67.5 144.75 68.25 145.1 68.5 145.35 68.8 146.05 69.5 146.1 70.45 146.05 71.65 145.35 72.45 145.15 72.7 144.9 72.9 143.8 73.8 141.95 74.2 140.15 74.55 138.05 74.55 137.2 74.55 136.45 74.45 136.3 74.45 136.1 74.45 134.5 74.3 133 74 131.85 73.8 130.7 73.5 126.9 72.6 123.25 70.95 122.15 70.45 121 69.9
L 116 78.9
Q 122.25 83.45 130.7 84.85 133.1 85.25 135.7 85.35
L 136.4 85.35
Q 136.65 85.35 136.8 85.35 137.85 85.35 138 85.35
L 138.05 85.35
Q 142.05 85.25 145.35 84.55 147.75 84 149.8 83.15 154.85 81 157.5 77.5 159.9 74.35 160.1 70.7
L 160.1 69.4
Q 160.1 68.85 160 68.3
L 160 68.25
Q 159.9 67.9 159.85 67.55 159.75 67.2 159.6 66.85
L 159.65 66.85
Q 159.55 66.75 159.5 66.65
L 159.5 66.55 159.45 66.45
Q 159.2 66.05 158.95 65.7 158.9 65.6 158.85 65.55 157.05 62.75 153.9 60.75
L 153.95 60.75
Q 150.45 58.5 145.35 57.15 142.65 56.5 140 56 137.15 55.4 134.8 54.75 134.5 54.7 134.1 54.6 132.45 54 131.3 53.2 130.95 52.95 130.7 52.7 130 51.95 130 51 130.05 49.8 130.7 49.05 130.9 48.8 131.15 48.6 132.3 47.65 134.1 47.3 135.95 46.95 138 46.95 138.85 46.95 139.65 47 139.8 47 139.95 47.05 141.6 47.15 143.1 47.5 144.25 47.7 145.35 47.95 149.15 48.9 152.8 50.5 153.9 51 155.05 51.6
L 160.05 42.55
Q 153.8 38.05 145.35 36.65 142.95 36.25 140.4 36.1
L 139.65 36.1
Q 139.4 36.1 139.25 36.1
M 176.95 36.1
L 162.15 36.1 162.15 85.3 176.95 85.3 176.95 66.8 191.6 66.8 191.6 85.3 206.35 85.3 206.35 36.1 191.6 36.1 191.6 54.55 176.95 54.55 176.95 36.1
M 245.15 48.35
L 245.15 36.1 208.3 36.1 208.3 85.3 245.15 85.3 245.15 73.05 223.1 73.05 223.1 66.8 237.75 66.8 237.75 54.55 223.1 54.55 223.1 48.35 245.15 48.35
M 288.7 48.35
Q 287.55 45.9 285.95 43.8 283.3 40.3 279.3 38.25 278 37.55 276.55 37.1 273.75 36.15 270.4 36.1 270.2 36.1 270 36.1
L 247.1 36.1 247.1 85.3 270 85.3
Q 270.2 85.3 270.4 85.3 273.75 85.25 276.55 84.3 278 83.85 279.3 83.15 283.3 81.1 285.95 77.6 287.55 75.45 288.7 73.05 289.45 71.45 289.95 69.75 290.4 68.3 290.7 66.8 291.05 65.15 291.2 63.45 291.25 63 291.25 62.55 291.3 62.35 291.3 62.2
L 291.3 59.5
Q 291.2 57 290.7 54.55 290.4 53.1 289.95 51.65 289.45 49.95 288.7 48.35
M 261.85 48.35
L 269.2 48.35
Q 271.65 48.45 273.3 50.2 274.9 51.9 275.7 54.55 275.75 54.6 275.75 54.75 276.4 56.75 276.55 58.95 276.6 59.85 276.6 60.75 276.6 61.65 276.55 62.5 276.4 64.65 275.75 66.7 275.75 66.75 275.75 66.8 274.9 69.5 273.3 71.2 271.65 72.95 269.2 73.05
L 261.85 73.05 261.85 48.35
M 337.25 66.8
Q 337.35 65.7 337.4 64.6
L 337.4 36.1 322.65 36.1 322.65 62.75
Q 322.6 65 322.25 66.8 322.2 67.05 322.15 67.3 322.05 67.65 321.9 68.05 321.45 69.4 320.7 70.45 319 72.8 315.9 73.05 315.55 73.05 315.2 73.05 314.85 73.05 314.55 73.05 311.45 72.8 309.75 70.45 309.05 69.4 308.65 68 308.5 67.65 308.45 67.3 308.4 67.05 308.35 66.8 308.05 65.25 308 63.3
L 308 36.1 293.25 36.1 293.25 62.3
Q 293.25 64.65 293.5 66.8 293.85 70.15 294.85 73.05 295.05 73.8 295.4 74.5 297.5 79.65 302.35 82.4 304.75 83.8 308 84.55 311.2 85.25 315.25 85.3 319.4 85.25 322.65 84.55 325.85 83.8 328.2 82.4 333.1 79.65 335.3 74.5 335.6 73.8 335.9 73.05 336.85 70.15 337.25 66.8
M 383.45 42.55
Q 377.25 38.05 368.8 36.65 366.4 36.25 363.8 36.1
L 363.1 36.1
Q 362.85 36.1 362.65 36.1 361.65 36.1 361.45 36.1 357.4 36.2 354.1 36.95 351.7 37.45 349.7 38.3 344.65 40.5 342 43.95 339.6 47.1 339.35 50.8
L 339.35 52.05
Q 339.4 52.65 339.5 53.15
L 339.5 53.2
Q 339.55 53.55 339.65 53.9 339.75 54.25 339.85 54.6 339.95 54.7 340 54.85
L 340 54.9 340.05 55
Q 340.3 55.4 340.55 55.8 340.55 55.85 340.6 55.9 342.45 58.7 345.55 60.75 349 63 354.1 64.3 356.8 64.95 359.5 65.5 362.3 66.05 364.7 66.7 365 66.8 365.4 66.85 367.05 67.5 368.2 68.25 368.55 68.5 368.8 68.8 369.5 69.5 369.5 70.45 369.45 71.65 368.8 72.45 368.6 72.7 368.35 72.9 367.2 73.8 365.4 74.2 363.55 74.55 361.5 74.55 360.65 74.55 359.85 74.45 359.7 74.45 359.55 74.45 357.9 74.3 356.4 74 355.25 73.8 354.1 73.5 350.3 72.6 346.7 70.95 345.55 70.45 344.45 69.9
L 339.45 78.9
Q 345.65 83.45 354.1 84.85 356.5 85.25 359.1 85.35
L 359.8 85.35
Q 360.05 85.35 360.25 85.35 361.3 85.35 361.45 85.35 365.5 85.25 368.8 84.55 371.2 84 373.2 83.15 378.25 81 380.9 77.5 383.3 74.35 383.55 70.7
L 383.55 69.4
Q 383.5 68.85 383.4 68.3
L 383.4 68.25
Q 383.35 67.9 383.25 67.55 383.15 67.2 383.05 66.85 383 66.75 382.95 66.65
L 382.9 66.6 382.9 66.55 382.85 66.45
Q 382.6 66.05 382.35 65.7 382.35 65.6 382.3 65.55 380.45 62.75 377.35 60.75 373.9 58.5 368.8 57.15 366.1 56.5 363.4 56 360.6 55.4 358.2 54.75 357.95 54.7 357.5 54.6 355.85 54 354.7 53.2 354.35 52.95 354.1 52.7 353.45 51.95 353.4 51 353.45 49.8 354.1 49.05 354.3 48.8 354.6 48.6 355.7 47.65 357.55 47.3 359.35 46.95 361.4 46.95 362.25 46.95 363.05 47 363.2 47 363.35 47.05 365 47.15 366.5 47.5 367.65 47.7 368.8 47.95 372.6 48.9 376.2 50.5 377.35 51 378.45 51.6
L 383.45 42.55
M 438.6 36.1
L 423.85 36.1 423.85 73 415 54.55 414.95 54.55 414.95 54.45 412.05 48.35 409.15 54.45 409.15 54.55 409.1 54.55 400.25 73 400.25 36.1 385.5 36.1 385.5 85.3 407.6 85.3 412.05 76.05 416.5 85.3 438.6 85.3 438.6 36.1 Z"/>

<path fill="#2E8B57" stroke="none" d="
M 94.55 5.95
Q 92.75 4.15 90.2 4.15 89.2 4.15 88.35 4.45
L 88.3 4.45 50.8 20.2
Q 49.95 20.5 48.95 20.5 48 20.5 47.1 20.2
L 9.6 4.45 9.55 4.45
Q 8.7 4.15 7.7 4.15 5.15 4.15 3.35 5.95 1.95 7.4 1.65 9.3
L 1.65 94
Q 1.65 94.05 1.65 94.1 1.7 96.5 3.45 98.2 4.25 99 5.15 99.45
L 46.95 117.05
Q 47.9 117.35 48.95 117.35 50.05 117.35 50.95 117.05
L 92.75 99.45
Q 93.7 99 94.5 98.2 96.2 96.5 96.25 94.1 96.25 94.05 96.25 94
L 96.25 71.55
Q 96.25 70.35 95.4 69.45 94.5 68.6 93.2 68.6 92.75 68.6 92.35 68.7
L 83.55 72.4
Q 83.05 72.65 82.65 73 81.95 73.75 81.8 74.75
L 81.8 81.5
Q 81.8 82.15 81.65 82.75 81.5 83.45 81.2 84.1 80.75 84.95 80 85.7 79.3 86.4 78.5 86.85 78.4 86.9 78.3 86.95
L 77.6 87.2
Q 76.6 87.65 75.6 88.1
L 51.2 98.35
Q 50.2 98.75 48.95 98.75 47.75 98.75 46.7 98.35
L 19.65 86.95
Q 18.7 86.5 17.9 85.7 17.15 84.95 16.75 84.1 16.4 83.45 16.25 82.75 16.15 82.15 16.1 81.5
L 16.1 71.6
Q 16.15 70.4 17 69.55 17.9 68.65 19.15 68.65 19.6 68.65 19.95 68.75
L 20.35 68.85 46.75 79.95
Q 47.75 80.35 48.95 80.35 50.05 80.35 51.05 80 51.15 79.95 51.2 79.95
L 75.15 69.85
Q 75.2 69.85 75.25 69.8
L 93.2 62.25
Q 93.9 61.85 94.5 61.25 96.15 59.6 96.25 57.35
L 96.25 9.3
Q 96 7.4 94.55 5.95
M 81.8 44.45
Q 81.8 44.75 81.75 45.05 81.5 47.1 80 48.6 79.2 49.4 78.3 49.85
L 51 61.35
Q 50.05 61.7 48.95 61.7 47.9 61.7 46.95 61.35
L 20.05 50.05 20.05 50 19.65 49.85
Q 18.7 49.4 17.9 48.6 16.2 46.9 16.1 44.45
L 16.1 30.3
Q 16.15 29.05 17 28.2 17.1 28.1 17.2 28 18.05 27.3 19.15 27.3 19.8 27.3 20.35 27.55
L 20.35 27.5 38 34.95
Q 38.5 35.2 39 35.5 39.7 35.9 40.3 36.4 41.05 36.95 41.7 37.65 41.75 37.7 41.85 37.75
L 46.9 43.05
Q 47.75 43.9 48.95 43.9 50.15 43.9 50.95 43.1
L 56.1 37.75
Q 56.15 37.7 56.2 37.65 56.9 36.95 57.6 36.4 58.25 35.9 58.9 35.5 59.4 35.2 59.9 34.95
L 77.55 27.5 77.55 27.55
Q 78.1 27.3 78.75 27.3 80 27.3 80.9 28.2 81.75 29.05 81.8 30.3
L 81.8 44.45 Z"/>
</g>
</defs>

<g transform="matrix( 1, 0, 0, 1, 0,0) ">
<use xlink:href="#Layer0_0_FILL"/>
</g>
</svg>
