
<svg xmlns="http://www.w3.org/2000/svg" version="1.1" xmlns:xlink="http://www.w3.org/1999/xlink" preserveAspectRatio="none" x="0px" y="0px" width="980px" height="165px" viewBox="0 0 980 165">
<defs>
<g id="Layer1_0_FILL">
<path fill="#FFFFFF" stroke="none" d="
M 126.65 129.6
L 126.65 127.15 122.05 127.15 122.05 122.1 119.4 122.1 119.4 127.15 113.6 127.15 113.6 129.6 119.4 129.6 119.4 133.4 112.1 133.4 112.1 135.85 121.7 135.85
Q 120.05 137.5 118.35 139.1
L 112.55 139.1 112.55 141.45 115.65 141.45
Q 113.8 143 111.65 144.55 112.65 145.6 113.4 146.65 116.45 144.25 119.55 141.45
L 124.5 141.45 120.65 145.3 120.65 147.15
Q 115.7 148 112.6 148.45
L 113.05 151.15
Q 116.15 150.55 119 150 119.85 149.85 120.65 149.7
L 120.65 152.95
Q 120.8 155.3 118.45 155.1 116.25 155.05 114.5 154.85 114.75 156.45 114.85 157.65 117.4 157.7 119 157.7 123.55 157.9 123.3 153.25
L 123.3 149.2
Q 126.75 148.6 129.8 148.05 129.85 146.9 129.95 145.5 126.3 146.15 123.3 146.7
L 123.3 146 128.1 141.3 128.1 139.1 122 139.1
Q 123.55 137.5 125.05 135.85
L 129.9 135.85 129.9 133.4 127.15 133.4
Q 129.95 130.1 132.2 126.7
L 130 125.25
Q 127.25 129.65 123.9 133.4
L 122.05 133.4 122.05 129.6 126.65 129.6
M 138.3 122.75
L 135.6 122.1
Q 133.05 132.55 128.85 140.25 130.05 140.9 131.25 141.7 132.15 139.9 133 138.1 133.9 143.55 136.5 147.85 135.65 148.95 134.65 150 131.35 153.45 126.6 155.9 127.75 157.4 128.4 158.35 134.4 155.05 138.15 150.3 141.55 154.85 146.95 158 147.7 156.75 148.7 155.25 144.5 153.2 141.55 150 140.65 149.05 139.85 147.95 144.25 141.05 144.5 131.45
L 148.15 131.45 148.15 128.8 136.6 128.8
Q 137.55 125.8 138.3 122.75
M 134.85 133.6
Q 135.3 132.55 135.65 131.45
L 141.8 131.45
Q 141.6 139.45 138.2 145.3 135.6 140.4 134.85 133.6
M 10.7 145.7
L 17.5 145.7 17.5 152
Q 13.65 152.4 9.9 152.75
L 10.6 155.7
Q 20 154.55 27.9 153.4 27.75 151.55 27.7 150.75 24 151.25 20.4 151.7
L 20.4 145.7 27.4 145.7 27.4 143.1 20.4 143.1 20.4 138.45 17.5 138.45 17.5 143.1 10.7 143.1 10.7 145.7
M 14.8 134.65
Q 16.75 131.5 19.4 126.15
L 27.85 126.15 27.85 123.5 10.35 123.5 10.35 126.15 16.3 126.15
Q 14.35 130.55 12.55 133.45 11.65 134.8 10.35 135.55
L 11.7 138.1
Q 12.85 137.75 14.35 137.5 18.45 137.05 23.9 136.65 24.55 138.1 25.15 139.6 26.3 139.05 27.7 138.35 25.65 133.6 23.05 128.7
L 20.7 129.85
Q 21.8 132 22.85 134.25 19.3 134.45 14.8 134.65
M 42.65 130.65
L 46.1 130.65 46.1 128 33.35 128
Q 34.55 125.2 35.6 122.1
L 32.9 121.2
Q 30.6 128.65 27.05 134.9 28.15 136.05 28.85 136.9 29.45 135.85 30.05 134.75 30.95 143.65 34.65 148.9 34.2 149.45 33.65 150 30.7 153 25.35 155.8 26.6 157.35 27.15 158.3 33.2 154.9 36.35 151.2 39.4 154.9 44.6 157.9 45.65 156.7 46.85 155.2 42.5 153.15 39.35 150 38.7 149.4 38.15 148.75 42.3 142.45 42.65 130.65
M 32.3 130.65
L 39.8 130.65
Q 39.55 141 36.35 146.45 32.8 141.2 32.3 130.65
M 78 121.5
L 74.75 121.5
Q 74.7 125.7 74.6 129.8
L 62.6 129.8 62.6 132.85 74.5 132.85
Q 74.15 141.7 71.55 145.85 70.4 147.95 68.2 150 65.4 152.55 61 155.05 62.15 156.55 63.2 157.85 69.65 154.05 72.9 150 73.95 148.7 74.65 147.4 77.4 142.5 77.7 132.85
L 91.5 132.85
Q 91.25 142.9 90.8 149.55 90.8 149.8 90.75 150 90.25 153.45 86.85 153.5 84.15 153.55 79.35 153.1
L 79.25 153.1
Q 79.65 155.25 79.8 156.7 84.1 156.85 87.15 156.85 93.5 156.75 93.95 150.3 93.95 150.15 94 150 94.4 143.95 94.8 129.8
L 77.8 129.8
Q 77.9 125.4 78 121.5
M 106.55 32.45
L 106.55 20.7 58 20.7
Q 59.7 16.8 61.25 12.65
L 46.45 10.4
Q 44.8 15.7 42.7 20.7
L 15 20.7 15 32.45 36.75 32.45
Q 28.05 47.2 14.15 59.2 15.85 66.25 17.35 73.85 24.4 68.2 30.6 61.8
L 30.6 103.1 44.1 103.1 44.1 84.05 84.15 84.05 84.15 85.65
Q 84.15 90.9 78.8 90.9 71.85 90.9 63.8 90.45 66.15 96.9 67.45 103.25 82 103.25 87 102.8 92 102.35 94.85 99.2 97.65 96 97.65 90.15
L 97.65 39.3 48.2 39.3
Q 50.3 35.95 52.15 32.45
L 106.55 32.45
M 84.15 50.25
L 84.15 57.15 44.1 57.15 44.1 50.25 84.15 50.25
M 84.15 67.2
L 84.15 74 44.1 74 44.1 67.2 84.15 67.2
M 266.5 130.6
Q 269.6 138.15 272.05 146
L 275.1 144.6
Q 272.25 136.55 269.2 129.4
L 266.5 130.6
M 315.7 139.4
Q 316.3 140.85 316.9 142.4 318.8 139.95 320.5 136.95
L 320.5 158.15 323.25 158.15 323.25 131.5
Q 325.15 127.3 326.8 122.3
L 323.9 121.5
Q 321.15 131.3 315.7 139.4
M 290.9 144.95
L 293.55 146.15
Q 296.65 139.8 300.1 130.9
L 297.1 129.75
Q 294.6 137.05 290.9 144.95
M 289.55 122.1
L 286.45 122.1 286.45 152.75 279.95 152.75 279.95 122.1 276.8 122.1 276.8 152.75 264.9 152.75 264.9 155.55 301.55 155.55 301.55 152.75 289.55 152.75 289.55 122.1
M 194.5 137.75
L 168.05 137.75 168.05 157.85 170.9 157.85 170.9 151.45 191.65 151.45 191.65 152.6
Q 191.6 154.8 189.1 154.8 187 154.8 184.45 154.4 184.95 157.1 185 157.45 187.55 157.5 189.3 157.5 194.5 157.5 194.5 153.05
L 194.5 137.75
M 170.9 143.4
L 170.9 140.25 191.65 140.25 191.65 143.4 170.9 143.4
M 170.9 145.85
L 191.65 145.85 191.65 149 170.9 149 170.9 145.85
M 181.45 121.25
L 178.9 122.5
Q 179.85 124 180.6 125.35
L 163.2 125.35 163.2 127.95 174.35 127.95
Q 172.2 129.75 169.95 131.05 168.4 132 165.85 132.45
L 166.9 135.6
Q 168.55 135.3 170.9 135.2 178.55 134.85 193.1 134.75 194.75 136.1 196.3 137.45
L 198.4 135.35
Q 193.8 131.8 189.05 128.55
L 187.3 130.45
Q 188.6 131.4 189.8 132.3 180.75 132.45 172.05 132.45 175.1 130.55 178.75 127.95
L 199.25 127.95 199.25 125.35 183.95 125.35
Q 183.15 123.85 181.45 121.25
M 228.85 134.35
Q 227.1 131.75 224.8 128.85
L 222.35 130.5
Q 224.8 133.75 226.25 136.2
L 228.85 134.35
M 220.6 141.55
L 220.6 138.95 249.4 138.95 249.4 136.35 238.4 136.35
Q 240.55 133.6 242.5 130.85
L 239.65 129
Q 237.65 132.7 235.15 136.35
L 217.6 136.35 217.6 141.55
Q 217.6 146.9 216.8 150 216.75 150.05 216.75 150.1 215.85 153.25 213.7 155.65 214.7 157 215.7 158.15 218.6 155 219.6 151.35 219.8 150.75 219.95 150 220.6 146.9 220.6 141.55
M 232.45 121.25
L 229.7 122.65
Q 230.7 124.25 231.5 125.75
L 214.55 125.75 214.55 128.4 250.35 128.4 250.35 125.75 234.95 125.75
Q 233.65 123.25 232.45 121.25
M 202.65 37.8
L 202.65 26.35 178.55 26.35
Q 180.4 19.95 182.2 12.85
L 169.75 11.65
Q 165.8 30.45 157.75 47.55
L 157.75 38.25 154.25 38.25
Q 158.6 32.8 163.15 25.9
L 154.15 20.15
Q 151.1 24.95 148.45 28.5
L 148.45 21.55 138.5 21.55 138.5 11.65 127.1 11.65 127.1 21.55 114.8 21.55 114.8 31.3 127.1 31.3 127.1 38.25 111.35 38.25 111.35 48 132.25 48
Q 129.6 51 127.25 53.45
L 111.6 53.45 111.6 62.85 117.7 62.85
Q 114.8 65.4 110.75 68.1 113.3 72.05 116.1 77.1 113.6 77.3 110.95 77.4
L 112.55 88.75
Q 121.45 87.7 131.95 86.7
L 131.95 88.1
Q 131.95 92.1 127.65 92.2 124.15 92.2 118.15 91.95 119.4 97.25 120.35 102.6 130 102.6 135.05 102.15 143.1 101.2 143.3 91.95
L 143.3 85.55
Q 150.8 84.8 159.15 84.05 159.25 80.3 159.6 73.45 151.65 74.2 143.3 74.85
L 143.3 71.2 154.65 63.15 154.65 53.45 141.8 53.45
Q 143.95 50.8 146.3 48
L 157.45 48
Q 156.25 50.55 155 52.9 159.5 58.75 162.6 64.35 164.3 61.75 165.9 58.65 168.4 69.25 172.9 77.95 164.85 87.6 152.3 93.45 157.55 98.7 161.75 104.75 172.65 98.75 180.35 89.6 186.7 97.45 195.25 103.35 200 94.75 203.4 90.9 194.3 86.1 187.85 78.5 196.9 61.95 198.8 37.8
L 202.65 37.8
M 174.8 37.8
L 187.35 37.8
Q 186.25 54.3 180.25 66.6 175.15 56.1 173.2 42.2 174.05 40.05 174.8 37.8
M 138.5 38.25
L 138.5 31.3 146.6 31.3
Q 143.75 35.05 140.95 38.25
L 138.5 38.25
M 140.5 62.85
L 131.95 68.75 131.95 75.9 118.45 76.95
Q 126.15 70.85 133.55 62.85
L 140.5 62.85
M 269.85 92.2
Q 264.5 92.3 257.5 91.95 259.55 98.3 260.5 103 269 103.2 277.1 102.45 288.4 101.2 288.4 88.85
L 288.4 51.4 217.45 51.4 217.45 103.35 230.6 103.35 230.6 86.7 275.2 86.7
Q 274.9 92.2 269.85 92.2
M 275.3 73.65
L 275.3 78.6 230.6 78.6 230.6 73.65 275.3 73.65
M 275.3 60.6
L 275.3 65.6 230.6 65.6 230.6 60.6 275.3 60.6
M 297.7 29.35
L 297.7 19.15 261.05 19.15
Q 258.7 14.05 257.1 10.7
L 242.85 12.3
Q 244.35 15.75 245.85 19.15
L 208.15 19.15 208.15 29.35 230.5 29.35
Q 222.05 35.35 212.85 39.2
L 216.7 48.75
Q 234.35 46.95 280.65 46.2 284.5 48.85 287.95 51.2
L 296.3 43.9
Q 289 39.1 274.1 29.35
L 297.7 29.35
M 248.1 29.35
L 266.1 29.35 261.5 33.1
Q 264.6 35.25 267.6 37.3 245.95 38.05 233.4 38.45 239.95 34.05 248.1 29.35
M 430.4 122.55
L 427.15 121.65
Q 424.15 131.3 417.65 139.85 418.45 141.5 419.1 143.1 421.4 140.15 423.45 136.8
L 423.45 157.85 426.6 157.85 426.6 131.25
Q 428.65 127.15 430.4 122.55
M 479.6 148.45
L 476.15 148.45 473.9 158.4 476.5 158.4 479.6 148.45
M 454.65 146.6
Q 452.9 146.15 451.35 145.55 451.25 148 450.95 150 450.85 150.7 450.7 151.35 450.3 153.75 447.75 153.75
L 443.05 153.75
Q 440.4 153.75 440.4 151.25
L 440.4 140.75
Q 447.8 135.4 453.2 128.2
L 450.45 126.25
Q 446.05 132.25 440.4 136.8
L 440.4 122.2 437.2 122.2 437.2 139.2
Q 432.95 142.15 428.1 144.4 429.1 145.8 429.9 147 433.7 145.15 437.2 142.95
L 437.2 151.6
Q 437.2 156.65 442.25 156.65
L 448.5 156.65
Q 453.15 156.65 453.85 152.35 454.05 151.25 454.25 150 454.5 148.4 454.65 146.6
M 349.95 144.55
L 328.85 144.55 328.85 158.15 331.7 158.15 331.7 155.95 347.1 155.95 347.1 158.15 349.95 158.15 349.95 144.55
M 331.7 147.05
L 347.1 147.05 347.1 153.35 331.7 153.35 331.7 147.05
M 328.45 138.5
L 328.45 141.05 350.35 141.05 350.35 138.5 328.45 138.5
M 328.45 132.55
L 328.45 135.05 350.35 135.05 350.35 132.55 328.45 132.55
M 338.7 121.4
L 336.2 122.7
Q 337.4 124.6 338.5 126.5
L 326.4 126.5 326.4 129.1 352.55 129.1 352.55 126.5 339.7 126.5 341.35 125.65
Q 340.05 123.4 338.7 121.4
M 398.7 145.9
L 396.55 147.6
Q 397.6 148.75 398.6 150 400.15 151.95 401.7 154.05
L 404.1 152.2
Q 403.2 151.05 402.3 150 400.5 147.8 398.7 145.9
M 378.3 146.75
L 375.45 146.75 375.45 152.55
Q 375.45 157.2 380.3 157.2
L 389.65 157.2
Q 394.3 157.2 395.15 153.65 395.55 152.2 395.95 150 396 149.75 396.05 149.5 394.55 149 393.15 148.45 393.05 149.3 392.95 150 392.7 151.55 392.4 152.45 391.95 154.55 388.95 154.55
L 380.75 154.55
Q 378.3 154.55 378.3 152.2
L 378.3 146.75
M 383.95 144.65
L 381.95 146.35
Q 383.45 147.8 385.35 150 385.95 150.75 386.65 151.55
L 388.95 149.6
Q 386.25 146.7 383.95 144.65
M 371.55 145.35
L 374.45 145.35 374.45 144.2 395.5 144.2 395.5 145.35 398.35 145.35 398.35 125.1 383.55 125.1
Q 384.25 123.6 384.85 122.05
L 381.95 121.25
Q 381.45 123.1 380.65 125.1
L 371.55 125.1 371.55 145.35
M 374.45 130.7
L 374.45 127.6 395.5 127.6 395.5 130.7 374.45 130.7
M 374.45 141.7
L 374.45 138.55 395.5 138.55 395.5 141.7 374.45 141.7
M 374.45 136.2
L 374.45 133.05 395.5 133.05 395.5 136.2 374.45 136.2
M 372.65 147.3
L 369.95 146.4
Q 369.3 148.3 368.6 150 367.55 152.45 366.5 154.4 368.05 154.95 369.25 155.5 370.45 152.9 371.65 150 372.15 148.7 372.65 147.3
M 359.8 50.25
L 349 57.8
Q 355.4 66.05 362.55 77.75
L 374.35 69.9
Q 366.55 58.35 359.8 50.25
M 392.25 26.65
L 368.05 26.65
Q 370.4 20.7 372.45 14.45
L 359.55 11.05
Q 352.7 31.8 345.15 44.45
L 345.15 26.15 329.2 26.15 333.4 13.4 319.45 11.25
Q 318.35 16.95 315.65 26.15
L 305.75 26.15 305.75 102.45 318.8 102.45 318.8 95.1 332.1 95.1 332.1 101.85 345.15 101.85 345.15 46
Q 351.75 48.85 356.15 51.75 359.6 45.55 362.7 39
L 379.05 39
Q 379.05 44.6 378.85 53.55
L 378.4 72.75
Q 378.2 83 377.8 84.3 377.45 85.6 376.4 86.7 375.3 87.7 373.7 88.25 372.05 88.75 369.8 88.75 361.95 88.75 355.05 88.2 357.2 94.1 358.6 102.35 374.1 102.35 378.75 101.55 383.35 100.75 385.9 98.55 388.5 96.35 389.7 92.85 390.95 89.35 391.15 80.65
L 392.25 26.65
M 332.1 66.8
L 332.1 82.85 318.8 82.85 318.8 66.8 332.1 66.8
M 332.1 38.45
L 332.1 54.5 318.8 54.5 318.8 38.45 332.1 38.45
M 572.55 129.8
L 572.55 132.85 584.45 132.85
Q 584.1 141.7 581.5 145.85 580.35 147.95 578.15 150 575.35 152.55 570.95 155.05 572.1 156.55 573.15 157.85 579.6 154.05 582.85 150 583.9 148.7 584.6 147.4 587.35 142.5 587.65 132.85
L 601.45 132.85
Q 601.2 142.9 600.75 149.55 600.75 149.8 600.7 150 600.2 153.45 596.8 153.5 594.1 153.55 589.3 153.1
L 589.2 153.1
Q 589.6 155.25 589.75 156.7 594.05 156.85 597.1 156.85 603.45 156.75 603.9 150.3 603.9 150.15 603.95 150 604.35 143.95 604.75 129.8
L 587.75 129.8
Q 587.85 125.4 587.95 121.5
L 584.7 121.5
Q 584.65 125.7 584.55 129.8
L 572.55 129.8
M 632 122.1
L 629.35 122.1 629.35 127.15 623.55 127.15 623.55 129.6 629.35 129.6 629.35 133.4 622.05 133.4 622.05 135.85 631.65 135.85
Q 630 137.5 628.3 139.1
L 622.5 139.1 622.5 141.45 625.6 141.45
Q 623.75 143 621.6 144.55 622.6 145.6 623.35 146.65 626.4 144.25 629.5 141.45
L 634.45 141.45 630.6 145.3 630.6 147.15
Q 625.65 148 622.55 148.45
L 623 151.15
Q 626.1 150.55 628.95 150 629.8 149.85 630.6 149.7
L 630.6 152.95
Q 630.75 155.3 628.4 155.1 626.2 155.05 624.45 154.85 624.7 156.45 624.8 157.65 627.35 157.7 628.95 157.7 633.5 157.9 633.25 153.25
L 633.25 149.2
Q 636.7 148.6 639.75 148.05 639.8 146.9 639.9 145.5 636.25 146.15 633.25 146.7
L 633.25 146 638.05 141.3 638.05 139.1 631.95 139.1
Q 633.5 137.5 635 135.85
L 639.85 135.85 639.85 133.4 637.1 133.4
Q 639.9 130.1 642.15 126.7
L 639.95 125.25
Q 637.2 129.65 633.85 133.4
L 632 133.4 632 129.6 636.6 129.6 636.6 127.15 632 127.15 632 122.1
M 545.25 121.8
L 542.25 121.8
Q 542.25 125.7 542.15 129.5
L 537.9 129.5 537.9 132.2 542.1 132.2
Q 542 141.3 540.95 145.3 540.35 147.85 539.2 150 538.8 150.75 538.35 151.4 538.4 150.6 538.45 150 538.45 149.35 538.5 148.95 537.2 149.15 535.9 149.35
L 535.9 124.05 522.85 124.05 522.85 151
Q 521.3 151.15 519.75 151.3
L 520.2 154.35
Q 530.05 152.8 538.2 151.65 536.7 153.75 534.6 155.45 535.75 156.85 536.5 158.15 540.5 154.65 542.55 150 543.35 148.1 543.85 146 544.95 141.6 545.05 132.2
L 551.6 132.2
Q 551.25 144.95 551 150 550.95 150.6 550.9 151.1 550.65 154.25 548.3 154.25 546.1 154.25 543.1 153.75 543.45 155.45 543.7 157.15 547.5 157.3 548.75 157.3 553.55 157.25 553.85 151.5 553.9 150.9 553.95 150 554.15 144.8 554.6 129.5
L 545.15 129.5
Q 545.2 125.6 545.25 121.8
M 533.1 126.55
L 533.1 132.7 525.65 132.7 525.65 126.55 533.1 126.55
M 533.1 135.15
L 533.1 141.3 525.65 141.3 525.65 135.15 533.1 135.15
M 533.1 149.7
Q 532.05 149.85 531 150 528.3 150.4 525.65 150.7
L 525.65 143.75 533.1 143.75 533.1 149.7
M 486.15 42.8
L 486.55 25.15 464.7 30.2 464.7 10.7 452.25 10.7 452.25 33.1 443.55 35.1 443.55 19.05 431.05 19.05 431.05 37.95 425.25 39.35 425.25 36.2 419.8 36.2 419.8 10.9 407.35 10.9 407.35 36.2 400.05 36.2 400.05 49.05 407.35 49.05 407.35 81.15 398.05 83.75 400.5 97.75 427.95 88.1
Q 427.7 78.8 427.95 74.85
L 419.8 77.45 419.8 49.05 424.05 49.05 424.8 52.15 431.05 50.6 431.05 86.5
Q 431.05 101 447.1 101
L 474.75 101
Q 478.95 101 482.1 99.35 485.2 97.65 487.05 94.55 488.8 91.45 491.35 79.95 486.3 77.95 478.7 74.7 477.45 83.5 476.75 85.8 476.05 88.1 473.8 89 471.55 89.95 468.1 89.95
L 449.7 89.95
Q 443.55 89.95 443.55 84.7
L 443.55 47.55 452.25 45.4 452.25 84.5 464.7 84.5 464.7 42.3 474.55 39.85
Q 474.55 49.2 474.3 54.2 474.1 59.2 473.8 60.15 473.5 61.05 472.65 61.55 471.75 62 468.9 62 467.25 62 465.2 61.85 466.95 68.1 468.3 74.3 479.25 73.3 481.2 71.55 483.2 69.7 484.4 67.1 485.55 64.45 486.15 42.8
M 585.3 36.4
L 585.3 24 550.95 24
Q 549.35 18.8 546.3 11.05
L 531.35 14.55 535.05 24 496.1 24 496.1 36.4 517.25 36.4
Q 517.05 51.5 516.1 59.75 515.15 67.95 509.8 76.4 504.4 84.9 494.05 91.65 501.85 100.65 504.2 104 527.75 87.65 530.6 60.8
L 560.25 60.8
Q 560.25 64.1 559.8 72.9 559.35 81.7 559 83.2 558.6 84.7 557.55 85.95 556.45 87.1 554.8 87.65 553.1 88.2 550 88.2 545.55 88.2 533.9 87.7 535.6 93.6 537.3 102.05 550.1 102.05 556.15 101.7 562.15 101.3 565.05 100.15 567.9 98.9 569.95 96.15 571.95 93.35 572.6 90.15 573.25 86.95 573.95 73.9 574.65 60.75 575.05 48.4
L 531.25 48.4
Q 531.45 42.2 531.55 36.4
L 585.3 36.4
M 639.1 20.35
L 622.8 20.35
Q 621.6 14.6 620.6 10.6
L 606.85 12 609.15 20.35 591 20.35 591 31.3 639.1 31.3 639.1 20.35
M 747.3 131.9
Q 747.3 136.9 747.2 139.2 746.85 145.45 743.4 150 740.8 153.4 736.45 155.8 737.5 157 738.35 158.25 744.05 154.8 746.9 150 748.35 147.5 749 144.6 749.9 147.6 751.2 150 754.05 155.4 758.7 158 759.85 156.7 761.05 155.4 757.3 153.7 754.65 150 751.6 145.8 750.05 139 750.2 135.75 750.2 131.9
L 747.3 131.9
M 747.75 121.95
L 744.8 121.2
Q 742.05 130.1 738 135.95 739.45 136.8 740.55 137.5 742.6 134.2 744.5 130
L 756.8 130 753.45 136.5 756.35 137.1 760.2 129.95 760.2 127.45 745.65 127.45
Q 746.7 124.85 747.75 121.95
M 785.8 122.6
L 782.75 121.7
Q 779.65 132.45 774.5 140.05 775.3 141.7 775.85 143.25 778 140.35 779.9 136.85
L 779.9 157.95 782.8 157.95 782.8 130.7
Q 784.4 126.95 785.8 122.6
M 680.85 157.85
L 680.85 151.45 701.55 151.45 701.55 152.6
Q 701.5 154.8 699 154.8 696.9 154.8 694.35 154.4 694.85 157.1 694.9 157.45 697.45 157.5 699.2 157.5 704.4 157.5 704.4 153.05
L 704.4 137.75 678 137.75 678 157.85 680.85 157.85
M 701.55 140.25
L 701.55 143.4 680.85 143.4 680.85 140.25 701.55 140.25
M 680.85 145.85
L 701.55 145.85 701.55 149 680.85 149 680.85 145.85
M 658.1 131.45
L 658.1 128.8 646.55 128.8
Q 647.5 125.8 648.25 122.75
L 645.55 122.1
Q 643 132.55 638.8 140.25 640 140.9 641.2 141.7 642.1 139.9 642.95 138.1 643.85 143.55 646.45 147.85 645.6 148.95 644.6 150 641.3 153.45 636.55 155.9 637.7 157.4 638.35 158.35 644.35 155.05 648.1 150.3 651.5 154.85 656.9 158 657.65 156.75 658.65 155.25 654.45 153.2 651.5 150 650.6 149.05 649.8 147.95 654.2 141.05 654.45 131.45
L 658.1 131.45
M 651.75 131.45
Q 651.55 139.45 648.15 145.3 645.55 140.4 644.8 133.6 645.25 132.55 645.6 131.45
L 651.75 131.45
M 728.3 129.6
Q 726.85 133.8 724.8 139.05
L 724.8 141.4 732.1 141.4 732.1 147.25
Q 728.05 147.7 723.75 148.1
L 724.1 150.9
Q 727.6 150.4 730.85 150 731.5 149.9 732.1 149.85
L 732.1 158 734.7 158 734.7 149.55
Q 737.75 149.15 740.5 148.9 740.6 147.7 740.75 146.3 737.8 146.65 734.7 147
L 734.7 141.4 739.8 141.4 739.8 138.95 734.7 138.95 734.7 131.45 732.1 131.45 732.1 138.95 727.6 138.95
Q 729.4 134.4 731.1 129.6
L 739.65 129.6 739.65 127.15 731.9 127.15
Q 732.8 124.5 733.7 121.8
L 730.7 121.2
Q 730.15 123.8 729.1 127.15
L 724.35 127.15 724.35 129.6 728.3 129.6
M 691.35 121.25
L 688.8 122.5
Q 689.75 124 690.5 125.35
L 673.15 125.35 673.15 127.95 684.25 127.95
Q 682.1 129.75 679.9 131.05 678.35 132 675.8 132.45
L 676.85 135.6
Q 678.5 135.3 680.85 135.2 688.45 134.85 703 134.75 704.65 136.1 706.2 137.45
L 708.3 135.35
Q 703.7 131.8 698.95 128.55
L 697.2 130.45
Q 698.5 131.4 699.7 132.3 690.65 132.45 682 132.45 685 130.55 688.65 127.95
L 709.15 127.95 709.15 125.35 693.85 125.35
Q 693.05 123.85 691.35 121.25
M 681.95 45.65
L 681.95 34.05 658.6 34.05 658.85 10.95 646.6 10.95
Q 646.6 23.5 646.35 34.05
L 638.25 34.05 638.25 45.65 646.05 45.65
Q 645.65 64.95 639.45 79 634.9 73.4 630 67.65
L 622.7 72.9 622.7 64.75 634.8 64.75 634.8 36.45 595.05 36.45 595.05 64.75 610.85 64.75 610.85 86.1
Q 610.95 87.85 610.05 89.05 609.05 90.25 602.25 89.9 604.9 81.4 607.7 69.7
L 596.9 67.1
Q 594.3 79.35 590.15 91 594.6 92.35 600.45 94.4 601.25 98.05 601.95 102.25 607.35 102.15 612.75 101.9 618.15 101.7 620.45 98.9 622.7 96.15 622.7 91.75
L 622.7 74.95
Q 627.1 80.55 631.05 86.4
L 638.75 80.65
Q 634.9 88.65 629.15 94.95 634.2 99.05 639.1 103.65 652.35 86.75 655.85 60.25
L 655.85 90.25
Q 655.85 101.85 666.35 101.85
L 669.75 101.85
Q 673.75 101.85 676.25 100.55 678.8 99.2 680.15 96.5 681.45 93.85 683.2 76.25
L 672.65 72.9
Q 671.95 86.35 671.45 88.35 670.85 90.35 669.2 90.35 666.95 90.35 666.95 88.1
L 666.95 52.05 657.9 52.05
Q 658.05 49.2 658.2 45.65
L 681.95 45.65
M 623.45 55
L 606.35 55 606.35 46.2 623.45 46.2 623.45 55
M 667.7 13.2
L 659.8 19.7
Q 666.2 26.45 671.45 33
L 679.85 25.5
Q 673.8 19.05 667.7 13.2
M 778.45 32.45
L 778.45 20.7 729.9 20.7
Q 731.6 16.8 733.15 12.65
L 718.35 10.4
Q 716.7 15.7 714.6 20.7
L 686.85 20.7 686.85 32.45 708.65 32.45
Q 699.95 47.2 686 59.2 687.7 66.25 689.2 73.85 696.25 68.2 702.5 61.8
L 702.5 103.1 716 103.1 716 84.05 756.05 84.05 756.05 85.65
Q 756.05 90.9 750.7 90.9 743.75 90.9 735.7 90.45 738.05 96.9 739.35 103.25 753.9 103.25 758.9 102.8 763.9 102.35 766.75 99.2 769.55 96 769.55 90.15
L 769.55 39.3 720.1 39.3
Q 722.2 35.95 724.05 32.45
L 778.45 32.45
M 756.05 67.2
L 756.05 74 716 74 716 67.2 756.05 67.2
M 756.05 50.25
L 756.05 57.15 716 57.15 716 50.25 756.05 50.25
M 900.4 145.8
L 900.4 139.65 897.5 139.65 897.5 152.6
Q 897.5 157 901.75 157
L 907.95 157
Q 912.1 157 912.6 153.7 912.85 152.4 913.1 150 913.15 149.4 913.2 148.75 911.75 148.3 910.3 147.7 910.25 148.95 910.15 150 910.05 151.6 909.85 152.6 909.55 154.45 907.7 154.45
L 902.25 154.45
Q 900.4 154.45 900.4 152.05
L 900.4 148.85
Q 907.05 146.4 913.1 143.2
L 911.45 140.65
Q 905.7 143.85 900.4 145.8
M 900.5 121.55
L 897.6 121.55 897.6 133.7
Q 897.6 138.15 902.1 138.15
L 907.5 138.15
Q 911.95 138.15 912.5 134.9 912.85 133.05 913.15 130.1 911.65 129.6 910.25 129 910.05 132.05 909.8 133.65 909.5 135.6 907.15 135.6
L 902.45 135.6
Q 900.5 135.6 900.5 133.1
L 900.5 130.95
Q 906.5 128.55 912.3 125.6
L 910.6 123.05
Q 905.6 125.9 900.5 127.95
L 900.5 121.55
M 940.35 122.55
L 937.1 121.65
Q 934.1 131.3 927.6 139.85 928.4 141.5 929.05 143.1 931.35 140.15 933.4 136.8
L 933.4 157.85 936.55 157.85 936.55 131.25
Q 938.6 127.15 940.35 122.55
M 950.35 122.2
L 947.15 122.2 947.15 139.2
Q 942.9 142.15 938.05 144.4 939.05 145.8 939.85 147 943.65 145.15 947.15 142.95
L 947.15 151.6
Q 947.15 156.65 952.2 156.65
L 958.45 156.65
Q 963.1 156.65 963.8 152.35 964 151.25 964.2 150 964.45 148.4 964.6 146.6 962.85 146.15 961.3 145.55 961.2 148 960.9 150 960.8 150.7 960.65 151.35 960.25 153.75 957.7 153.75
L 953 153.75
Q 950.35 153.75 950.35 151.25
L 950.35 140.75
Q 957.75 135.4 963.15 128.2
L 960.4 126.25
Q 956 132.25 950.35 136.8
L 950.35 122.2
M 881.75 157.6
L 881.75 149.65 891 149.65 891 152.75
Q 891 154.7 889.2 154.7 887.8 154.7 885.45 154.5 885.8 156.15 886 157.3 888.55 157.3 890.2 157.25 893.9 157.25 893.9 153.2
L 893.9 135.65 878.85 135.65 878.85 157.6 881.75 157.6
M 881.75 147.45
L 881.75 143.85 891 143.85 891 147.45 881.75 147.45
M 881.75 141.6
L 881.75 138.05 891 138.05 891 141.6 881.75 141.6
M 834.55 158.15
L 834.55 156.5 853.95 156.5 853.95 158.15 856.7 158.15 856.7 141.25 831.8 141.25 831.8 158.15 834.55 158.15
M 853.95 143.65
L 853.95 147.7 834.55 147.7 834.55 143.65 853.95 143.65
M 834.55 154.1
L 834.55 150.05 853.95 150.05 853.95 154.1 834.55 154.1
M 810.4 132.9
L 810.4 130.3 801.5 130.3 801.5 121.65 798.55 121.65 798.55 130.3 792.4 130.3
Q 793.25 127.8 793.95 125.05
L 790.95 124.2
Q 789.3 131.85 785.75 138.05 787.15 138.95 788.2 140 790 136.85 791.5 132.9
L 798.55 132.9 798.55 142.25 785.7 142.25 785.7 144.85 798.55 144.85 798.55 157.9 801.5 157.9 801.5 144.85 811.6 144.85 811.6 142.25 801.5 142.25 801.5 132.9 810.4 132.9
M 834.15 121.85
L 831.45 121.25
Q 830 125.7 826.05 128.95 827.1 130.15 827.8 131.15 829.8 129.4 831.2 127.35
L 834.9 127.35
Q 834.8 129.6 834.55 131.3
L 826.3 131.3 826.3 133.65 833.9 133.65
Q 832.1 137.95 825.45 140.4 826.45 141.75 827.2 142.9 833.1 140.45 835.6 136.5 839.2 138.35 843 141
L 844.7 138.8
Q 840.35 136.2 836.65 134.35 836.75 134.05 836.85 133.65
L 844.95 133.65 844.95 131.3 837.35 131.3
Q 837.55 129.55 837.7 127.35
L 843.85 127.35 843.85 125 832.75 125
Q 833.55 123.5 834.15 121.85
M 860.3 139.75
L 860.3 124.55 846.15 124.55 846.15 139.75 848.9 139.75 848.9 137.5 857.55 137.5 857.55 139.75 860.3 139.75
M 857.55 126.95
L 857.55 135.15 848.9 135.15 848.9 126.95 857.55 126.95
M 887.3 122.1
L 884.4 121
Q 882.4 124.3 880.35 127 878.4 129.45 876.75 130.3
L 877.95 133.45
Q 883.4 132.9 892.5 132.25 893.3 133.55 894 134.85 895.15 134.1 896.6 133.15 894.1 129.1 890.7 124.7
L 888.4 126.15
Q 889.75 128 890.95 129.8 886.4 130.15 880.8 130.5 884.25 126.55 887.3 122.1
M 830.95 37.9
L 812.75 37.9 812.75 27.3
Q 820.4 26.45 827.2 25.4
L 824.3 13.7
Q 805 16.5 784 17.65 785.3 25.3 785.65 29.65
L 798.9 28.65 798.9 37.9 781.8 37.9 781.8 49.9 798.9 49.9 798.9 61.95
Q 790.4 62.85 781.75 63.6
L 784.05 76.95 798.9 74.6 798.9 85.95
Q 798.9 88.45 798 89.7 797.1 90.85 795.4 90.85
L 793.55 90.8
Q 788.8 90.8 784.25 90.45 786.15 94.55 787.8 102.8 796 102.8 802.05 102.4 808.15 101.9 810.45 99.2 812.75 96.45 812.75 91.25
L 812.75 72.6 828.6 70.65
Q 828.4 68.35 828.4 65.65 828.4 62.2 828.7 58.1 820.8 59.25 812.75 60.3
L 812.75 49.9 831.65 49.9
Q 832.75 66.5 835.4 77 826.05 83.55 815 88.2 819.8 93.9 822.7 99.15 831.65 94.35 839.55 88.95 846.7 103.25 860.2 103.25 866.25 103.25 869.6 98.25 873 93.25 875.65 79.1 870.8 77 864.25 72.7 863.25 79.5 862 84.3 860.8 89.05 860.1 89.4 859.35 89.75 858.75 89.75 854.05 89.75 850.3 80.75 862.1 71 871.35 59.1
L 861.3 50.9
Q 854.75 60.45 846.5 68.05 845.15 60.65 844.5 49.9
L 874.75 49.9 874.75 37.9 843.95 37.9
Q 843.3 24.9 843.05 11.25
L 829.75 11.25 830.95 37.9
M 870.4 27.75
Q 864.9 22.3 854 13.5
L 846.05 21.3
Q 854.75 28.5 861.6 36.2 865 32.7 870.4 27.75
M 922.8 35.05
L 910.35 35.05 910.35 102.5 922.8 102.5 922.8 35.05
M 910.45 17.65
Q 915.7 24.75 921.25 33.4
L 931.9 26.15
Q 928 20.35 920.55 11.25
L 910.45 17.65
M 907.55 14.8
L 895 11.25
Q 889.65 33.75 878.1 52.15 880.05 61.25 881.3 69.5 885.4 64 889.15 57.75
L 889.15 102.5 901.65 102.5 901.65 32
Q 904.8 23.8 907.55 14.8
M 935.5 29.55
L 954.4 29.55 954.4 81.05
Q 954.4 84.6 953.05 86.75 951.7 88.95 949.55 89.55 947.4 90.1 942 90.1 937.15 90.1 931.75 89.75 933.7 96.45 935 103 948.15 102.85 954.2 102.25 960.2 101.65 963.55 97.15 966.9 92.65 966.9 84.15
L 966.9 16.95 935.5 16.95 935.5 29.55 Z"/>
</g>

<g id="Layer0_0_FILL">
<path fill="#333333" stroke="none" d="
M 126.65 129.6
L 126.65 127.15 122.05 127.15 122.05 122.1 119.4 122.1 119.4 127.15 113.6 127.15 113.6 129.6 119.4 129.6 119.4 133.4 112.1 133.4 112.1 135.85 121.7 135.85
Q 120.05 137.5 118.35 139.1
L 112.55 139.1 112.55 141.45 115.65 141.45
Q 113.8 143 111.65 144.55 112.65 145.6 113.4 146.65 116.45 144.25 119.55 141.45
L 124.5 141.45 120.65 145.3 120.65 147.15
Q 115.7 148 112.6 148.45
L 113.05 151.15
Q 116.15 150.55 119 150 119.85 149.85 120.65 149.7
L 120.65 152.95
Q 120.8 155.3 118.45 155.1 116.25 155.05 114.5 154.85 114.75 156.45 114.85 157.65 117.4 157.7 119 157.7 123.55 157.9 123.3 153.25
L 123.3 149.2
Q 126.75 148.6 129.8 148.05 129.85 146.9 129.95 145.5 126.3 146.15 123.3 146.7
L 123.3 146 128.1 141.3 128.1 139.1 122 139.1
Q 123.55 137.5 125.05 135.85
L 129.9 135.85 129.9 133.4 127.15 133.4
Q 129.95 130.1 132.2 126.7
L 130 125.25
Q 127.25 129.65 123.9 133.4
L 122.05 133.4 122.05 129.6 126.65 129.6
M 138.3 122.75
L 135.6 122.1
Q 133.05 132.55 128.85 140.25 130.05 140.9 131.25 141.7 132.15 139.9 133 138.1 133.9 143.55 136.5 147.85 135.65 148.95 134.65 150 131.35 153.45 126.6 155.9 127.75 157.4 128.4 158.35 134.4 155.05 138.15 150.3 141.55 154.85 146.95 158 147.7 156.75 148.7 155.25 144.5 153.2 141.55 150 140.65 149.05 139.85 147.95 144.25 141.05 144.5 131.45
L 148.15 131.45 148.15 128.8 136.6 128.8
Q 137.55 125.8 138.3 122.75
M 134.85 133.6
Q 135.3 132.55 135.65 131.45
L 141.8 131.45
Q 141.6 139.45 138.2 145.3 135.6 140.4 134.85 133.6
M 10.7 145.7
L 17.5 145.7 17.5 152
Q 13.65 152.4 9.9 152.75
L 10.6 155.7
Q 20 154.55 27.9 153.4 27.75 151.55 27.7 150.75 24 151.25 20.4 151.7
L 20.4 145.7 27.4 145.7 27.4 143.1 20.4 143.1 20.4 138.45 17.5 138.45 17.5 143.1 10.7 143.1 10.7 145.7
M 14.8 134.65
Q 16.75 131.5 19.4 126.15
L 27.85 126.15 27.85 123.5 10.35 123.5 10.35 126.15 16.3 126.15
Q 14.35 130.55 12.55 133.45 11.65 134.8 10.35 135.55
L 11.7 138.1
Q 12.85 137.75 14.35 137.5 18.45 137.05 23.9 136.65 24.55 138.1 25.15 139.6 26.3 139.05 27.7 138.35 25.65 133.6 23.05 128.7
L 20.7 129.85
Q 21.8 132 22.85 134.25 19.3 134.45 14.8 134.65
M 42.65 130.65
L 46.1 130.65 46.1 128 33.35 128
Q 34.55 125.2 35.6 122.1
L 32.9 121.2
Q 30.6 128.65 27.05 134.9 28.15 136.05 28.85 136.9 29.45 135.85 30.05 134.75 30.95 143.65 34.65 148.9 34.2 149.45 33.65 150 30.7 153 25.35 155.8 26.6 157.35 27.15 158.3 33.2 154.9 36.35 151.2 39.4 154.9 44.6 157.9 45.65 156.7 46.85 155.2 42.5 153.15 39.35 150 38.7 149.4 38.15 148.75 42.3 142.45 42.65 130.65
M 32.3 130.65
L 39.8 130.65
Q 39.55 141 36.35 146.45 32.8 141.2 32.3 130.65
M 78 121.5
L 74.75 121.5
Q 74.7 125.7 74.6 129.8
L 62.6 129.8 62.6 132.85 74.5 132.85
Q 74.15 141.7 71.55 145.85 70.4 147.95 68.2 150 65.4 152.55 61 155.05 62.15 156.55 63.2 157.85 69.65 154.05 72.9 150 73.95 148.7 74.65 147.4 77.4 142.5 77.7 132.85
L 91.5 132.85
Q 91.25 142.9 90.8 149.55 90.8 149.8 90.75 150 90.25 153.45 86.85 153.5 84.15 153.55 79.35 153.1
L 79.25 153.1
Q 79.65 155.25 79.8 156.7 84.1 156.85 87.15 156.85 93.5 156.75 93.95 150.3 93.95 150.15 94 150 94.4 143.95 94.8 129.8
L 77.8 129.8
Q 77.9 125.4 78 121.5
M 266.5 130.6
Q 269.6 138.15 272.05 146
L 275.1 144.6
Q 272.25 136.55 269.2 129.4
L 266.5 130.6
M 315.7 139.4
Q 316.3 140.85 316.9 142.4 318.8 139.95 320.5 136.95
L 320.5 158.15 323.25 158.15 323.25 131.5
Q 325.15 127.3 326.8 122.3
L 323.9 121.5
Q 321.15 131.3 315.7 139.4
M 290.9 144.95
L 293.55 146.15
Q 296.65 139.8 300.1 130.9
L 297.1 129.75
Q 294.6 137.05 290.9 144.95
M 289.55 122.1
L 286.45 122.1 286.45 152.75 279.95 152.75 279.95 122.1 276.8 122.1 276.8 152.75 264.9 152.75 264.9 155.55 301.55 155.55 301.55 152.75 289.55 152.75 289.55 122.1
M 194.5 137.75
L 168.05 137.75 168.05 157.85 170.9 157.85 170.9 151.45 191.65 151.45 191.65 152.6
Q 191.6 154.8 189.1 154.8 187 154.8 184.45 154.4 184.95 157.1 185 157.45 187.55 157.5 189.3 157.5 194.5 157.5 194.5 153.05
L 194.5 137.75
M 170.9 143.4
L 170.9 140.25 191.65 140.25 191.65 143.4 170.9 143.4
M 170.9 145.85
L 191.65 145.85 191.65 149 170.9 149 170.9 145.85
M 181.45 121.25
L 178.9 122.5
Q 179.85 124 180.6 125.35
L 163.2 125.35 163.2 127.95 174.35 127.95
Q 172.2 129.75 169.95 131.05 168.4 132 165.85 132.45
L 166.9 135.6
Q 168.55 135.3 170.9 135.2 178.55 134.85 193.1 134.75 194.75 136.1 196.3 137.45
L 198.4 135.35
Q 193.8 131.8 189.05 128.55
L 187.3 130.45
Q 188.6 131.4 189.8 132.3 180.75 132.45 172.05 132.45 175.1 130.55 178.75 127.95
L 199.25 127.95 199.25 125.35 183.95 125.35
Q 183.15 123.85 181.45 121.25
M 228.85 134.35
Q 227.1 131.75 224.8 128.85
L 222.35 130.5
Q 224.8 133.75 226.25 136.2
L 228.85 134.35
M 220.6 141.55
L 220.6 138.95 249.4 138.95 249.4 136.35 238.4 136.35
Q 240.55 133.6 242.5 130.85
L 239.65 129
Q 237.65 132.7 235.15 136.35
L 217.6 136.35 217.6 141.55
Q 217.6 146.9 216.8 150 216.75 150.05 216.75 150.1 215.85 153.25 213.7 155.65 214.7 157 215.7 158.15 218.6 155 219.6 151.35 219.8 150.75 219.95 150 220.6 146.9 220.6 141.55
M 232.45 121.25
L 229.7 122.65
Q 230.7 124.25 231.5 125.75
L 214.55 125.75 214.55 128.4 250.35 128.4 250.35 125.75 234.95 125.75
Q 233.65 123.25 232.45 121.25
M 430.4 122.55
L 427.15 121.65
Q 424.15 131.3 417.65 139.85 418.45 141.5 419.1 143.1 421.4 140.15 423.45 136.8
L 423.45 157.85 426.6 157.85 426.6 131.25
Q 428.65 127.15 430.4 122.55
M 479.6 148.45
L 476.15 148.45 473.9 158.4 476.5 158.4 479.6 148.45
M 454.65 146.6
Q 452.9 146.15 451.35 145.55 451.25 148 450.95 150 450.85 150.7 450.7 151.35 450.3 153.75 447.75 153.75
L 443.05 153.75
Q 440.4 153.75 440.4 151.25
L 440.4 140.75
Q 447.8 135.4 453.2 128.2
L 450.45 126.25
Q 446.05 132.25 440.4 136.8
L 440.4 122.2 437.2 122.2 437.2 139.2
Q 432.95 142.15 428.1 144.4 429.1 145.8 429.9 147 433.7 145.15 437.2 142.95
L 437.2 151.6
Q 437.2 156.65 442.25 156.65
L 448.5 156.65
Q 453.15 156.65 453.85 152.35 454.05 151.25 454.25 150 454.5 148.4 454.65 146.6
M 349.95 144.55
L 328.85 144.55 328.85 158.15 331.7 158.15 331.7 155.95 347.1 155.95 347.1 158.15 349.95 158.15 349.95 144.55
M 331.7 147.05
L 347.1 147.05 347.1 153.35 331.7 153.35 331.7 147.05
M 328.45 138.5
L 328.45 141.05 350.35 141.05 350.35 138.5 328.45 138.5
M 328.45 132.55
L 328.45 135.05 350.35 135.05 350.35 132.55 328.45 132.55
M 338.7 121.4
L 336.2 122.7
Q 337.4 124.6 338.5 126.5
L 326.4 126.5 326.4 129.1 352.55 129.1 352.55 126.5 339.7 126.5 341.35 125.65
Q 340.05 123.4 338.7 121.4
M 398.7 145.9
L 396.55 147.6
Q 397.6 148.75 398.6 150 400.15 151.95 401.7 154.05
L 404.1 152.2
Q 403.2 151.05 402.3 150 400.5 147.8 398.7 145.9
M 378.3 146.75
L 375.45 146.75 375.45 152.55
Q 375.45 157.2 380.3 157.2
L 389.65 157.2
Q 394.3 157.2 395.15 153.65 395.55 152.2 395.95 150 396 149.75 396.05 149.5 394.55 149 393.15 148.45 393.05 149.3 392.95 150 392.7 151.55 392.4 152.45 391.95 154.55 388.95 154.55
L 380.75 154.55
Q 378.3 154.55 378.3 152.2
L 378.3 146.75
M 383.95 144.65
L 381.95 146.35
Q 383.45 147.8 385.35 150 385.95 150.75 386.65 151.55
L 388.95 149.6
Q 386.25 146.7 383.95 144.65
M 371.55 145.35
L 374.45 145.35 374.45 144.2 395.5 144.2 395.5 145.35 398.35 145.35 398.35 125.1 383.55 125.1
Q 384.25 123.6 384.85 122.05
L 381.95 121.25
Q 381.45 123.1 380.65 125.1
L 371.55 125.1 371.55 145.35
M 374.45 130.7
L 374.45 127.6 395.5 127.6 395.5 130.7 374.45 130.7
M 374.45 141.7
L 374.45 138.55 395.5 138.55 395.5 141.7 374.45 141.7
M 374.45 136.2
L 374.45 133.05 395.5 133.05 395.5 136.2 374.45 136.2
M 372.65 147.3
L 369.95 146.4
Q 369.3 148.3 368.6 150 367.55 152.45 366.5 154.4 368.05 154.95 369.25 155.5 370.45 152.9 371.65 150 372.15 148.7 372.65 147.3
M 572.55 129.8
L 572.55 132.85 584.45 132.85
Q 584.1 141.7 581.5 145.85 580.35 147.95 578.15 150 575.35 152.55 570.95 155.05 572.1 156.55 573.15 157.85 579.6 154.05 582.85 150 583.9 148.7 584.6 147.4 587.35 142.5 587.65 132.85
L 601.45 132.85
Q 601.2 142.9 600.75 149.55 600.75 149.8 600.7 150 600.2 153.45 596.8 153.5 594.1 153.55 589.3 153.1
L 589.2 153.1
Q 589.6 155.25 589.75 156.7 594.05 156.85 597.1 156.85 603.45 156.75 603.9 150.3 603.9 150.15 603.95 150 604.35 143.95 604.75 129.8
L 587.75 129.8
Q 587.85 125.4 587.95 121.5
L 584.7 121.5
Q 584.65 125.7 584.55 129.8
L 572.55 129.8
M 632 122.1
L 629.35 122.1 629.35 127.15 623.55 127.15 623.55 129.6 629.35 129.6 629.35 133.4 622.05 133.4 622.05 135.85 631.65 135.85
Q 630 137.5 628.3 139.1
L 622.5 139.1 622.5 141.45 625.6 141.45
Q 623.75 143 621.6 144.55 622.6 145.6 623.35 146.65 626.4 144.25 629.5 141.45
L 634.45 141.45 630.6 145.3 630.6 147.15
Q 625.65 148 622.55 148.45
L 623 151.15
Q 626.1 150.55 628.95 150 629.8 149.85 630.6 149.7
L 630.6 152.95
Q 630.75 155.3 628.4 155.1 626.2 155.05 624.45 154.85 624.7 156.45 624.8 157.65 627.35 157.7 628.95 157.7 633.5 157.9 633.25 153.25
L 633.25 149.2
Q 636.7 148.6 639.75 148.05 639.8 146.9 639.9 145.5 636.25 146.15 633.25 146.7
L 633.25 146 638.05 141.3 638.05 139.1 631.95 139.1
Q 633.5 137.5 635 135.85
L 639.85 135.85 639.85 133.4 637.1 133.4
Q 639.9 130.1 642.15 126.7
L 639.95 125.25
Q 637.2 129.65 633.85 133.4
L 632 133.4 632 129.6 636.6 129.6 636.6 127.15 632 127.15 632 122.1
M 545.25 121.8
L 542.25 121.8
Q 542.25 125.7 542.15 129.5
L 537.9 129.5 537.9 132.2 542.1 132.2
Q 542 141.3 540.95 145.3 540.35 147.85 539.2 150 538.8 150.75 538.35 151.4 538.4 150.6 538.45 150 538.45 149.35 538.5 148.95 537.2 149.15 535.9 149.35
L 535.9 124.05 522.85 124.05 522.85 151
Q 521.3 151.15 519.75 151.3
L 520.2 154.35
Q 530.05 152.8 538.2 151.65 536.7 153.75 534.6 155.45 535.75 156.85 536.5 158.15 540.5 154.65 542.55 150 543.35 148.1 543.85 146 544.95 141.6 545.05 132.2
L 551.6 132.2
Q 551.25 144.95 551 150 550.95 150.6 550.9 151.1 550.65 154.25 548.3 154.25 546.1 154.25 543.1 153.75 543.45 155.45 543.7 157.15 547.5 157.3 548.75 157.3 553.55 157.25 553.85 151.5 553.9 150.9 553.95 150 554.15 144.8 554.6 129.5
L 545.15 129.5
Q 545.2 125.6 545.25 121.8
M 533.1 126.55
L 533.1 132.7 525.65 132.7 525.65 126.55 533.1 126.55
M 533.1 135.15
L 533.1 141.3 525.65 141.3 525.65 135.15 533.1 135.15
M 533.1 149.7
Q 532.05 149.85 531 150 528.3 150.4 525.65 150.7
L 525.65 143.75 533.1 143.75 533.1 149.7
M 747.3 131.9
Q 747.3 136.9 747.2 139.2 746.85 145.45 743.4 150 740.8 153.4 736.45 155.8 737.5 157 738.35 158.25 744.05 154.8 746.9 150 748.35 147.5 749 144.6 749.9 147.6 751.2 150 754.05 155.4 758.7 158 759.85 156.7 761.05 155.4 757.3 153.7 754.65 150 751.6 145.8 750.05 139 750.2 135.75 750.2 131.9
L 747.3 131.9
M 747.75 121.95
L 744.8 121.2
Q 742.05 130.1 738 135.95 739.45 136.8 740.55 137.5 742.6 134.2 744.5 130
L 756.8 130 753.45 136.5 756.35 137.1 760.2 129.95 760.2 127.45 745.65 127.45
Q 746.7 124.85 747.75 121.95
M 785.8 122.6
L 782.75 121.7
Q 779.65 132.45 774.5 140.05 775.3 141.7 775.85 143.25 778 140.35 779.9 136.85
L 779.9 157.95 782.8 157.95 782.8 130.7
Q 784.4 126.95 785.8 122.6
M 680.85 157.85
L 680.85 151.45 701.55 151.45 701.55 152.6
Q 701.5 154.8 699 154.8 696.9 154.8 694.35 154.4 694.85 157.1 694.9 157.45 697.45 157.5 699.2 157.5 704.4 157.5 704.4 153.05
L 704.4 137.75 678 137.75 678 157.85 680.85 157.85
M 701.55 140.25
L 701.55 143.4 680.85 143.4 680.85 140.25 701.55 140.25
M 680.85 145.85
L 701.55 145.85 701.55 149 680.85 149 680.85 145.85
M 658.1 131.45
L 658.1 128.8 646.55 128.8
Q 647.5 125.8 648.25 122.75
L 645.55 122.1
Q 643 132.55 638.8 140.25 640 140.9 641.2 141.7 642.1 139.9 642.95 138.1 643.85 143.55 646.45 147.85 645.6 148.95 644.6 150 641.3 153.45 636.55 155.9 637.7 157.4 638.35 158.35 644.35 155.05 648.1 150.3 651.5 154.85 656.9 158 657.65 156.75 658.65 155.25 654.45 153.2 651.5 150 650.6 149.05 649.8 147.95 654.2 141.05 654.45 131.45
L 658.1 131.45
M 651.75 131.45
Q 651.55 139.45 648.15 145.3 645.55 140.4 644.8 133.6 645.25 132.55 645.6 131.45
L 651.75 131.45
M 728.3 129.6
Q 726.85 133.8 724.8 139.05
L 724.8 141.4 732.1 141.4 732.1 147.25
Q 728.05 147.7 723.75 148.1
L 724.1 150.9
Q 727.6 150.4 730.85 150 731.5 149.9 732.1 149.85
L 732.1 158 734.7 158 734.7 149.55
Q 737.75 149.15 740.5 148.9 740.6 147.7 740.75 146.3 737.8 146.65 734.7 147
L 734.7 141.4 739.8 141.4 739.8 138.95 734.7 138.95 734.7 131.45 732.1 131.45 732.1 138.95 727.6 138.95
Q 729.4 134.4 731.1 129.6
L 739.65 129.6 739.65 127.15 731.9 127.15
Q 732.8 124.5 733.7 121.8
L 730.7 121.2
Q 730.15 123.8 729.1 127.15
L 724.35 127.15 724.35 129.6 728.3 129.6
M 691.35 121.25
L 688.8 122.5
Q 689.75 124 690.5 125.35
L 673.15 125.35 673.15 127.95 684.25 127.95
Q 682.1 129.75 679.9 131.05 678.35 132 675.8 132.45
L 676.85 135.6
Q 678.5 135.3 680.85 135.2 688.45 134.85 703 134.75 704.65 136.1 706.2 137.45
L 708.3 135.35
Q 703.7 131.8 698.95 128.55
L 697.2 130.45
Q 698.5 131.4 699.7 132.3 690.65 132.45 682 132.45 685 130.55 688.65 127.95
L 709.15 127.95 709.15 125.35 693.85 125.35
Q 693.05 123.85 691.35 121.25
M 900.4 145.8
L 900.4 139.65 897.5 139.65 897.5 152.6
Q 897.5 157 901.75 157
L 907.95 157
Q 912.1 157 912.6 153.7 912.85 152.4 913.1 150 913.15 149.4 913.2 148.75 911.75 148.3 910.3 147.7 910.25 148.95 910.15 150 910.05 151.6 909.85 152.6 909.55 154.45 907.7 154.45
L 902.25 154.45
Q 900.4 154.45 900.4 152.05
L 900.4 148.85
Q 907.05 146.4 913.1 143.2
L 911.45 140.65
Q 905.7 143.85 900.4 145.8
M 900.5 121.55
L 897.6 121.55 897.6 133.7
Q 897.6 138.15 902.1 138.15
L 907.5 138.15
Q 911.95 138.15 912.5 134.9 912.85 133.05 913.15 130.1 911.65 129.6 910.25 129 910.05 132.05 909.8 133.65 909.5 135.6 907.15 135.6
L 902.45 135.6
Q 900.5 135.6 900.5 133.1
L 900.5 130.95
Q 906.5 128.55 912.3 125.6
L 910.6 123.05
Q 905.6 125.9 900.5 127.95
L 900.5 121.55
M 940.35 122.55
L 937.1 121.65
Q 934.1 131.3 927.6 139.85 928.4 141.5 929.05 143.1 931.35 140.15 933.4 136.8
L 933.4 157.85 936.55 157.85 936.55 131.25
Q 938.6 127.15 940.35 122.55
M 950.35 122.2
L 947.15 122.2 947.15 139.2
Q 942.9 142.15 938.05 144.4 939.05 145.8 939.85 147 943.65 145.15 947.15 142.95
L 947.15 151.6
Q 947.15 156.65 952.2 156.65
L 958.45 156.65
Q 963.1 156.65 963.8 152.35 964 151.25 964.2 150 964.45 148.4 964.6 146.6 962.85 146.15 961.3 145.55 961.2 148 960.9 150 960.8 150.7 960.65 151.35 960.25 153.75 957.7 153.75
L 953 153.75
Q 950.35 153.75 950.35 151.25
L 950.35 140.75
Q 957.75 135.4 963.15 128.2
L 960.4 126.25
Q 956 132.25 950.35 136.8
L 950.35 122.2
M 881.75 157.6
L 881.75 149.65 891 149.65 891 152.75
Q 891 154.7 889.2 154.7 887.8 154.7 885.45 154.5 885.8 156.15 886 157.3 888.55 157.3 890.2 157.25 893.9 157.25 893.9 153.2
L 893.9 135.65 878.85 135.65 878.85 157.6 881.75 157.6
M 881.75 147.45
L 881.75 143.85 891 143.85 891 147.45 881.75 147.45
M 881.75 141.6
L 881.75 138.05 891 138.05 891 141.6 881.75 141.6
M 834.55 158.15
L 834.55 156.5 853.95 156.5 853.95 158.15 856.7 158.15 856.7 141.25 831.8 141.25 831.8 158.15 834.55 158.15
M 853.95 143.65
L 853.95 147.7 834.55 147.7 834.55 143.65 853.95 143.65
M 834.55 154.1
L 834.55 150.05 853.95 150.05 853.95 154.1 834.55 154.1
M 810.4 132.9
L 810.4 130.3 801.5 130.3 801.5 121.65 798.55 121.65 798.55 130.3 792.4 130.3
Q 793.25 127.8 793.95 125.05
L 790.95 124.2
Q 789.3 131.85 785.75 138.05 787.15 138.95 788.2 140 790 136.85 791.5 132.9
L 798.55 132.9 798.55 142.25 785.7 142.25 785.7 144.85 798.55 144.85 798.55 157.9 801.5 157.9 801.5 144.85 811.6 144.85 811.6 142.25 801.5 142.25 801.5 132.9 810.4 132.9
M 834.15 121.85
L 831.45 121.25
Q 830 125.7 826.05 128.95 827.1 130.15 827.8 131.15 829.8 129.4 831.2 127.35
L 834.9 127.35
Q 834.8 129.6 834.55 131.3
L 826.3 131.3 826.3 133.65 833.9 133.65
Q 832.1 137.95 825.45 140.4 826.45 141.75 827.2 142.9 833.1 140.45 835.6 136.5 839.2 138.35 843 141
L 844.7 138.8
Q 840.35 136.2 836.65 134.35 836.75 134.05 836.85 133.65
L 844.95 133.65 844.95 131.3 837.35 131.3
Q 837.55 129.55 837.7 127.35
L 843.85 127.35 843.85 125 832.75 125
Q 833.55 123.5 834.15 121.85
M 860.3 139.75
L 860.3 124.55 846.15 124.55 846.15 139.75 848.9 139.75 848.9 137.5 857.55 137.5 857.55 139.75 860.3 139.75
M 857.55 126.95
L 857.55 135.15 848.9 135.15 848.9 126.95 857.55 126.95
M 887.3 122.1
L 884.4 121
Q 882.4 124.3 880.35 127 878.4 129.45 876.75 130.3
L 877.95 133.45
Q 883.4 132.9 892.5 132.25 893.3 133.55 894 134.85 895.15 134.1 896.6 133.15 894.1 129.1 890.7 124.7
L 888.4 126.15
Q 889.75 128 890.95 129.8 886.4 130.15 880.8 130.5 884.25 126.55 887.3 122.1 Z"/>

<path fill="#2E8B57" stroke="none" d="
M 106.55 32.45
L 106.55 20.7 58 20.7
Q 59.7 16.8 61.25 12.65
L 46.45 10.4
Q 44.8 15.7 42.7 20.7
L 15 20.7 15 32.45 36.75 32.45
Q 28.05 47.2 14.15 59.2 15.85 66.25 17.35 73.85 24.4 68.2 30.6 61.8
L 30.6 103.1 44.1 103.1 44.1 84.05 84.15 84.05 84.15 85.65
Q 84.15 90.9 78.8 90.9 71.85 90.9 63.8 90.45 66.15 96.9 67.45 103.25 82 103.25 87 102.8 92 102.35 94.85 99.2 97.65 96 97.65 90.15
L 97.65 39.3 48.2 39.3
Q 50.3 35.95 52.15 32.45
L 106.55 32.45
M 84.15 50.25
L 84.15 57.15 44.1 57.15 44.1 50.25 84.15 50.25
M 84.15 67.2
L 84.15 74 44.1 74 44.1 67.2 84.15 67.2
M 202.65 37.8
L 202.65 26.35 178.55 26.35
Q 180.4 19.95 182.2 12.85
L 169.75 11.65
Q 165.8 30.45 157.75 47.55
L 157.75 38.25 154.25 38.25
Q 158.6 32.8 163.15 25.9
L 154.15 20.15
Q 151.1 24.95 148.45 28.5
L 148.45 21.55 138.5 21.55 138.5 11.65 127.1 11.65 127.1 21.55 114.8 21.55 114.8 31.3 127.1 31.3 127.1 38.25 111.35 38.25 111.35 48 132.25 48
Q 129.6 51 127.25 53.45
L 111.6 53.45 111.6 62.85 117.7 62.85
Q 114.8 65.4 110.75 68.1 113.3 72.05 116.1 77.1 113.6 77.3 110.95 77.4
L 112.55 88.75
Q 121.45 87.7 131.95 86.7
L 131.95 88.1
Q 131.95 92.1 127.65 92.2 124.15 92.2 118.15 91.95 119.4 97.25 120.35 102.6 130 102.6 135.05 102.15 143.1 101.2 143.3 91.95
L 143.3 85.55
Q 150.8 84.8 159.15 84.05 159.25 80.3 159.6 73.45 151.65 74.2 143.3 74.85
L 143.3 71.2 154.65 63.15 154.65 53.45 141.8 53.45
Q 143.95 50.8 146.3 48
L 157.45 48
Q 156.25 50.55 155 52.9 159.5 58.75 162.6 64.35 164.3 61.75 165.9 58.65 168.4 69.25 172.9 77.95 164.85 87.6 152.3 93.45 157.55 98.7 161.75 104.75 172.65 98.75 180.35 89.6 186.7 97.45 195.25 103.35 200 94.75 203.4 90.9 194.3 86.1 187.85 78.5 196.9 61.95 198.8 37.8
L 202.65 37.8
M 174.8 37.8
L 187.35 37.8
Q 186.25 54.3 180.25 66.6 175.15 56.1 173.2 42.2 174.05 40.05 174.8 37.8
M 138.5 38.25
L 138.5 31.3 146.6 31.3
Q 143.75 35.05 140.95 38.25
L 138.5 38.25
M 140.5 62.85
L 131.95 68.75 131.95 75.9 118.45 76.95
Q 126.15 70.85 133.55 62.85
L 140.5 62.85
M 269.85 92.2
Q 264.5 92.3 257.5 91.95 259.55 98.3 260.5 103 269 103.2 277.1 102.45 288.4 101.2 288.4 88.85
L 288.4 51.4 217.45 51.4 217.45 103.35 230.6 103.35 230.6 86.7 275.2 86.7
Q 274.9 92.2 269.85 92.2
M 275.3 73.65
L 275.3 78.6 230.6 78.6 230.6 73.65 275.3 73.65
M 275.3 60.6
L 275.3 65.6 230.6 65.6 230.6 60.6 275.3 60.6
M 297.7 29.35
L 297.7 19.15 261.05 19.15
Q 258.7 14.05 257.1 10.7
L 242.85 12.3
Q 244.35 15.75 245.85 19.15
L 208.15 19.15 208.15 29.35 230.5 29.35
Q 222.05 35.35 212.85 39.2
L 216.7 48.75
Q 234.35 46.95 280.65 46.2 284.5 48.85 287.95 51.2
L 296.3 43.9
Q 289 39.1 274.1 29.35
L 297.7 29.35
M 248.1 29.35
L 266.1 29.35 261.5 33.1
Q 264.6 35.25 267.6 37.3 245.95 38.05 233.4 38.45 239.95 34.05 248.1 29.35
M 359.8 50.25
L 349 57.8
Q 355.4 66.05 362.55 77.75
L 374.35 69.9
Q 366.55 58.35 359.8 50.25
M 392.25 26.65
L 368.05 26.65
Q 370.4 20.7 372.45 14.45
L 359.55 11.05
Q 352.7 31.8 345.15 44.45
L 345.15 26.15 329.2 26.15 333.4 13.4 319.45 11.25
Q 318.35 16.95 315.65 26.15
L 305.75 26.15 305.75 102.45 318.8 102.45 318.8 95.1 332.1 95.1 332.1 101.85 345.15 101.85 345.15 46
Q 351.75 48.85 356.15 51.75 359.6 45.55 362.7 39
L 379.05 39
Q 379.05 44.6 378.85 53.55
L 378.4 72.75
Q 378.2 83 377.8 84.3 377.45 85.6 376.4 86.7 375.3 87.7 373.7 88.25 372.05 88.75 369.8 88.75 361.95 88.75 355.05 88.2 357.2 94.1 358.6 102.35 374.1 102.35 378.75 101.55 383.35 100.75 385.9 98.55 388.5 96.35 389.7 92.85 390.95 89.35 391.15 80.65
L 392.25 26.65
M 332.1 66.8
L 332.1 82.85 318.8 82.85 318.8 66.8 332.1 66.8
M 332.1 38.45
L 332.1 54.5 318.8 54.5 318.8 38.45 332.1 38.45
M 486.15 42.8
L 486.55 25.15 464.7 30.2 464.7 10.7 452.25 10.7 452.25 33.1 443.55 35.1 443.55 19.05 431.05 19.05 431.05 37.95 425.25 39.35 425.25 36.2 419.8 36.2 419.8 10.9 407.35 10.9 407.35 36.2 400.05 36.2 400.05 49.05 407.35 49.05 407.35 81.15 398.05 83.75 400.5 97.75 427.95 88.1
Q 427.7 78.8 427.95 74.85
L 419.8 77.45 419.8 49.05 424.05 49.05 424.8 52.15 431.05 50.6 431.05 86.5
Q 431.05 101 447.1 101
L 474.75 101
Q 478.95 101 482.1 99.35 485.2 97.65 487.05 94.55 488.8 91.45 491.35 79.95 486.3 77.95 478.7 74.7 477.45 83.5 476.75 85.8 476.05 88.1 473.8 89 471.55 89.95 468.1 89.95
L 449.7 89.95
Q 443.55 89.95 443.55 84.7
L 443.55 47.55 452.25 45.4 452.25 84.5 464.7 84.5 464.7 42.3 474.55 39.85
Q 474.55 49.2 474.3 54.2 474.1 59.2 473.8 60.15 473.5 61.05 472.65 61.55 471.75 62 468.9 62 467.25 62 465.2 61.85 466.95 68.1 468.3 74.3 479.25 73.3 481.2 71.55 483.2 69.7 484.4 67.1 485.55 64.45 486.15 42.8
M 585.3 36.4
L 585.3 24 550.95 24
Q 549.35 18.8 546.3 11.05
L 531.35 14.55 535.05 24 496.1 24 496.1 36.4 517.25 36.4
Q 517.05 51.5 516.1 59.75 515.15 67.95 509.8 76.4 504.4 84.9 494.05 91.65 501.85 100.65 504.2 104 527.75 87.65 530.6 60.8
L 560.25 60.8
Q 560.25 64.1 559.8 72.9 559.35 81.7 559 83.2 558.6 84.7 557.55 85.95 556.45 87.1 554.8 87.65 553.1 88.2 550 88.2 545.55 88.2 533.9 87.7 535.6 93.6 537.3 102.05 550.1 102.05 556.15 101.7 562.15 101.3 565.05 100.15 567.9 98.9 569.95 96.15 571.95 93.35 572.6 90.15 573.25 86.95 573.95 73.9 574.65 60.75 575.05 48.4
L 531.25 48.4
Q 531.45 42.2 531.55 36.4
L 585.3 36.4
M 639.1 20.35
L 622.8 20.35
Q 621.6 14.6 620.6 10.6
L 606.85 12 609.15 20.35 591 20.35 591 31.3 639.1 31.3 639.1 20.35
M 681.95 45.65
L 681.95 34.05 658.6 34.05 658.85 10.95 646.6 10.95
Q 646.6 23.5 646.35 34.05
L 638.25 34.05 638.25 45.65 646.05 45.65
Q 645.65 64.95 639.45 79 634.9 73.4 630 67.65
L 622.7 72.9 622.7 64.75 634.8 64.75 634.8 36.45 595.05 36.45 595.05 64.75 610.85 64.75 610.85 86.1
Q 610.95 87.85 610.05 89.05 609.05 90.25 602.25 89.9 604.9 81.4 607.7 69.7
L 596.9 67.1
Q 594.3 79.35 590.15 91 594.6 92.35 600.45 94.4 601.25 98.05 601.95 102.25 607.35 102.15 612.75 101.9 618.15 101.7 620.45 98.9 622.7 96.15 622.7 91.75
L 622.7 74.95
Q 627.1 80.55 631.05 86.4
L 638.75 80.65
Q 634.9 88.65 629.15 94.95 634.2 99.05 639.1 103.65 652.35 86.75 655.85 60.25
L 655.85 90.25
Q 655.85 101.85 666.35 101.85
L 669.75 101.85
Q 673.75 101.85 676.25 100.55 678.8 99.2 680.15 96.5 681.45 93.85 683.2 76.25
L 672.65 72.9
Q 671.95 86.35 671.45 88.35 670.85 90.35 669.2 90.35 666.95 90.35 666.95 88.1
L 666.95 52.05 657.9 52.05
Q 658.05 49.2 658.2 45.65
L 681.95 45.65
M 623.45 55
L 606.35 55 606.35 46.2 623.45 46.2 623.45 55
M 667.7 13.2
L 659.8 19.7
Q 666.2 26.45 671.45 33
L 679.85 25.5
Q 673.8 19.05 667.7 13.2
M 778.45 32.45
L 778.45 20.7 729.9 20.7
Q 731.6 16.8 733.15 12.65
L 718.35 10.4
Q 716.7 15.7 714.6 20.7
L 686.85 20.7 686.85 32.45 708.65 32.45
Q 699.95 47.2 686 59.2 687.7 66.25 689.2 73.85 696.25 68.2 702.5 61.8
L 702.5 103.1 716 103.1 716 84.05 756.05 84.05 756.05 85.65
Q 756.05 90.9 750.7 90.9 743.75 90.9 735.7 90.45 738.05 96.9 739.35 103.25 753.9 103.25 758.9 102.8 763.9 102.35 766.75 99.2 769.55 96 769.55 90.15
L 769.55 39.3 720.1 39.3
Q 722.2 35.95 724.05 32.45
L 778.45 32.45
M 756.05 67.2
L 756.05 74 716 74 716 67.2 756.05 67.2
M 756.05 50.25
L 756.05 57.15 716 57.15 716 50.25 756.05 50.25
M 830.95 37.9
L 812.75 37.9 812.75 27.3
Q 820.4 26.45 827.2 25.4
L 824.3 13.7
Q 805 16.5 784 17.65 785.3 25.3 785.65 29.65
L 798.9 28.65 798.9 37.9 781.8 37.9 781.8 49.9 798.9 49.9 798.9 61.95
Q 790.4 62.85 781.75 63.6
L 784.05 76.95 798.9 74.6 798.9 85.95
Q 798.9 88.45 798 89.7 797.1 90.85 795.4 90.85
L 793.55 90.8
Q 788.8 90.8 784.25 90.45 786.15 94.55 787.8 102.8 796 102.8 802.05 102.4 808.15 101.9 810.45 99.2 812.75 96.45 812.75 91.25
L 812.75 72.6 828.6 70.65
Q 828.4 68.35 828.4 65.65 828.4 62.2 828.7 58.1 820.8 59.25 812.75 60.3
L 812.75 49.9 831.65 49.9
Q 832.75 66.5 835.4 77 826.05 83.55 815 88.2 819.8 93.9 822.7 99.15 831.65 94.35 839.55 88.95 846.7 103.25 860.2 103.25 866.25 103.25 869.6 98.25 873 93.25 875.65 79.1 870.8 77 864.25 72.7 863.25 79.5 862 84.3 860.8 89.05 860.1 89.4 859.35 89.75 858.75 89.75 854.05 89.75 850.3 80.75 862.1 71 871.35 59.1
L 861.3 50.9
Q 854.75 60.45 846.5 68.05 845.15 60.65 844.5 49.9
L 874.75 49.9 874.75 37.9 843.95 37.9
Q 843.3 24.9 843.05 11.25
L 829.75 11.25 830.95 37.9
M 870.4 27.75
Q 864.9 22.3 854 13.5
L 846.05 21.3
Q 854.75 28.5 861.6 36.2 865 32.7 870.4 27.75
M 922.8 35.05
L 910.35 35.05 910.35 102.5 922.8 102.5 922.8 35.05
M 910.45 17.65
Q 915.7 24.75 921.25 33.4
L 931.9 26.15
Q 928 20.35 920.55 11.25
L 910.45 17.65
M 907.55 14.8
L 895 11.25
Q 889.65 33.75 878.1 52.15 880.05 61.25 881.3 69.5 885.4 64 889.15 57.75
L 889.15 102.5 901.65 102.5 901.65 32
Q 904.8 23.8 907.55 14.8
M 935.5 29.55
L 954.4 29.55 954.4 81.05
Q 954.4 84.6 953.05 86.75 951.7 88.95 949.55 89.55 947.4 90.1 942 90.1 937.15 90.1 931.75 89.75 933.7 96.45 935 103 948.15 102.85 954.2 102.25 960.2 101.65 963.55 97.15 966.9 92.65 966.9 84.15
L 966.9 16.95 935.5 16.95 935.5 29.55 Z"/>
</g>

<path id="Layer1_0_1_STROKES" stroke="#FFFFFF" stroke-width="10" stroke-linejoin="miter" stroke-linecap="square" stroke-miterlimit="3" fill="none" d="
M 966.9 84.15
Q 966.9 92.65 963.55 97.15 960.2 101.65 954.2 102.25 948.15 102.85 935 103 933.7 96.45 931.75 89.75 937.15 90.1 942 90.1 947.4 90.1 949.55 89.55 951.7 88.95 953.05 86.75 954.4 84.6 954.4 81.05
L 954.4 29.55 935.5 29.55 935.5 16.95 966.9 16.95 966.9 84.15 Z
M 895 11.25
L 907.55 14.8
Q 904.8 23.8 901.65 32
L 901.65 102.5 889.15 102.5 889.15 57.75
Q 885.4 64 881.3 69.5 880.05 61.25 878.1 52.15 889.65 33.75 895 11.25 Z
M 910.45 17.65
L 920.55 11.25
Q 928 20.35 931.9 26.15
L 921.25 33.4
Q 915.7 24.75 910.45 17.65 Z
M 910.35 35.05
L 922.8 35.05 922.8 102.5 910.35 102.5 910.35 35.05 Z
M 854 13.5
Q 864.9 22.3 870.4 27.75 865 32.7 861.6 36.2 854.75 28.5 846.05 21.3
L 854 13.5 Z
M 784.05 76.95
L 781.75 63.6
Q 790.4 62.85 798.9 61.95
L 798.9 49.9 781.8 49.9 781.8 37.9 798.9 37.9 798.9 28.65 785.65 29.65
Q 785.3 25.3 784 17.65 805 16.5 824.3 13.7
L 827.2 25.4
Q 820.4 26.45 812.75 27.3
L 812.75 37.9 830.95 37.9 829.75 11.25 843.05 11.25
Q 843.3 24.9 843.95 37.9
L 874.75 37.9 874.75 49.9 844.5 49.9
Q 845.15 60.65 846.5 68.05 854.75 60.45 861.3 50.9
L 871.35 59.1
Q 862.1 71 850.3 80.75 854.05 89.75 858.75 89.75 859.35 89.75 860.1 89.4 860.8 89.05 862 84.3 863.25 79.5 864.25 72.7 870.8 77 875.65 79.1 873 93.25 869.6 98.25 866.25 103.25 860.2 103.25 846.7 103.25 839.55 88.95 831.65 94.35 822.7 99.15 819.8 93.9 815 88.2 826.05 83.55 835.4 77 832.75 66.5 831.65 49.9
L 812.75 49.9 812.75 60.3
Q 820.8 59.25 828.7 58.1 828.4 62.2 828.4 65.65 828.4 68.35 828.6 70.65
L 812.75 72.6 812.75 91.25
Q 812.75 96.45 810.45 99.2 808.15 101.9 802.05 102.4 796 102.8 787.8 102.8 786.15 94.55 784.25 90.45 788.8 90.8 793.55 90.8
L 795.4 90.85
Q 797.1 90.85 798 89.7 798.9 88.45 798.9 85.95
L 798.9 74.6 784.05 76.95 Z
M 716 103.1
L 702.5 103.1 702.5 61.8
Q 696.25 68.2 689.2 73.85 687.7 66.25 686 59.2 699.95 47.2 708.65 32.45
L 686.85 32.45 686.85 20.7 714.6 20.7
Q 716.7 15.7 718.35 10.4
L 733.15 12.65
Q 731.6 16.8 729.9 20.7
L 778.45 20.7 778.45 32.45 724.05 32.45
Q 722.2 35.95 720.1 39.3
L 769.55 39.3 769.55 90.15
Q 769.55 96 766.75 99.2 763.9 102.35 758.9 102.8 753.9 103.25 739.35 103.25 738.05 96.9 735.7 90.45 743.75 90.9 750.7 90.9 756.05 90.9 756.05 85.65
L 756.05 84.05 716 84.05 716 103.1 Z
M 716 74
L 756.05 74 756.05 67.2 716 67.2 716 74 Z
M 756.05 50.25
L 716 50.25 716 57.15 756.05 57.15 756.05 50.25 Z
M 667.7 13.2
Q 673.8 19.05 679.85 25.5
L 671.45 33
Q 666.2 26.45 659.8 19.7
L 667.7 13.2 Z
M 681.95 45.65
L 658.2 45.65
Q 658.05 49.2 657.9 52.05
L 666.95 52.05 666.95 88.1
Q 666.95 90.35 669.2 90.35 670.85 90.35 671.45 88.35 671.95 86.35 672.65 72.9
L 683.2 76.25
Q 681.45 93.85 680.15 96.5 678.8 99.2 676.25 100.55 673.75 101.85 669.75 101.85
L 666.35 101.85
Q 655.85 101.85 655.85 90.25
L 655.85 60.25
Q 652.35 86.75 639.1 103.65 634.2 99.05 629.15 94.95 634.9 88.65 638.75 80.65
L 631.05 86.4
Q 627.1 80.55 622.7 74.95
L 622.7 91.75
Q 622.7 96.15 620.45 98.9 618.15 101.7 612.75 101.9 607.35 102.15 601.95 102.25 601.25 98.05 600.45 94.4 594.6 92.35 590.15 91 594.3 79.35 596.9 67.1
L 607.7 69.7
Q 604.9 81.4 602.25 89.9 609.05 90.25 610.05 89.05 610.95 87.85 610.85 86.1
L 610.85 64.75 595.05 64.75 595.05 36.45 634.8 36.45 634.8 64.75 622.7 64.75 622.7 72.9 630 67.65
Q 634.9 73.4 639.45 79 645.65 64.95 646.05 45.65
L 638.25 45.65 638.25 34.05 646.35 34.05
Q 646.6 23.5 646.6 10.95
L 658.85 10.95 658.6 34.05 681.95 34.05 681.95 45.65 Z
M 591 20.35
L 609.15 20.35 606.85 12 620.6 10.6
Q 621.6 14.6 622.8 20.35
L 639.1 20.35 639.1 31.3 591 31.3 591 20.35 Z
M 537.3 102.05
Q 535.6 93.6 533.9 87.7 545.55 88.2 550 88.2 553.1 88.2 554.8 87.65 556.45 87.1 557.55 85.95 558.6 84.7 559 83.2 559.35 81.7 559.8 72.9 560.25 64.1 560.25 60.8
L 530.6 60.8
Q 527.75 87.65 504.2 104 501.85 100.65 494.05 91.65 504.4 84.9 509.8 76.4 515.15 67.95 516.1 59.75 517.05 51.5 517.25 36.4
L 496.1 36.4 496.1 24 535.05 24 531.35 14.55 546.3 11.05
Q 549.35 18.8 550.95 24
L 585.3 24 585.3 36.4 531.55 36.4
Q 531.45 42.2 531.25 48.4
L 575.05 48.4
Q 574.65 60.75 573.95 73.9 573.25 86.95 572.6 90.15 571.95 93.35 569.95 96.15 567.9 98.9 565.05 100.15 562.15 101.3 556.15 101.7 550.1 102.05 537.3 102.05 Z
M 623.45 55
L 623.45 46.2 606.35 46.2 606.35 55 623.45 55 Z
M 452.25 10.7
L 464.7 10.7 464.7 30.2 486.55 25.15 486.15 42.8
Q 485.55 64.45 484.4 67.1 483.2 69.7 481.2 71.55 479.25 73.3 468.3 74.3 466.95 68.1 465.2 61.85 467.25 62 468.9 62 471.75 62 472.65 61.55 473.5 61.05 473.8 60.15 474.1 59.2 474.3 54.2 474.55 49.2 474.55 39.85
L 464.7 42.3 464.7 84.5 452.25 84.5 452.25 45.4 443.55 47.55 443.55 84.7
Q 443.55 89.95 449.7 89.95
L 468.1 89.95
Q 471.55 89.95 473.8 89 476.05 88.1 476.75 85.8 477.45 83.5 478.7 74.7 486.3 77.95 491.35 79.95 488.8 91.45 487.05 94.55 485.2 97.65 482.1 99.35 478.95 101 474.75 101
L 447.1 101
Q 431.05 101 431.05 86.5
L 431.05 50.6 424.8 52.15 424.05 49.05 419.8 49.05 419.8 77.45 427.95 74.85
Q 427.7 78.8 427.95 88.1
L 400.5 97.75 398.05 83.75 407.35 81.15 407.35 49.05 400.05 49.05 400.05 36.2 407.35 36.2 407.35 10.9 419.8 10.9 419.8 36.2 425.25 36.2 425.25 39.35 431.05 37.95 431.05 19.05 443.55 19.05 443.55 35.1 452.25 33.1 452.25 10.7 Z
M 319.45 11.25
L 333.4 13.4 329.2 26.15 345.15 26.15 345.15 44.45
Q 352.7 31.8 359.55 11.05
L 372.45 14.45
Q 370.4 20.7 368.05 26.65
L 392.25 26.65 391.15 80.65
Q 390.95 89.35 389.7 92.85 388.5 96.35 385.9 98.55 383.35 100.75 378.75 101.55 374.1 102.35 358.6 102.35 357.2 94.1 355.05 88.2 361.95 88.75 369.8 88.75 372.05 88.75 373.7 88.25 375.3 87.7 376.4 86.7 377.45 85.6 377.8 84.3 378.2 83 378.4 72.75
L 378.85 53.55
Q 379.05 44.6 379.05 39
L 362.7 39
Q 359.6 45.55 356.15 51.75 351.75 48.85 345.15 46
L 345.15 101.85 332.1 101.85 332.1 95.1 318.8 95.1 318.8 102.45 305.75 102.45 305.75 26.15 315.65 26.15
Q 318.35 16.95 319.45 11.25 Z
M 359.8 50.25
Q 366.55 58.35 374.35 69.9
L 362.55 77.75
Q 355.4 66.05 349 57.8
L 359.8 50.25 Z
M 318.8 82.85
L 332.1 82.85 332.1 66.8 318.8 66.8 318.8 82.85 Z
M 332.1 38.45
L 318.8 38.45 318.8 54.5 332.1 54.5 332.1 38.45 Z
M 208.15 19.15
L 245.85 19.15
Q 244.35 15.75 242.85 12.3
L 257.1 10.7
Q 258.7 14.05 261.05 19.15
L 297.7 19.15 297.7 29.35 274.1 29.35
Q 289 39.1 296.3 43.9
L 287.95 51.2
Q 284.5 48.85 280.65 46.2 234.35 46.95 216.7 48.75
L 212.85 39.2
Q 222.05 35.35 230.5 29.35
L 208.15 29.35 208.15 19.15 Z
M 261.5 33.1
L 266.1 29.35 248.1 29.35
Q 239.95 34.05 233.4 38.45 245.95 38.05 267.6 37.3 264.6 35.25 261.5 33.1 Z
M 230.6 103.35
L 217.45 103.35 217.45 51.4 288.4 51.4 288.4 88.85
Q 288.4 101.2 277.1 102.45 269 103.2 260.5 103 259.55 98.3 257.5 91.95 264.5 92.3 269.85 92.2 274.9 92.2 275.2 86.7
L 230.6 86.7 230.6 103.35 Z
M 230.6 78.6
L 275.3 78.6 275.3 73.65 230.6 73.65 230.6 78.6 Z
M 230.6 65.6
L 275.3 65.6 275.3 60.6 230.6 60.6 230.6 65.6 Z
M 154.65 53.45
L 154.65 63.15 143.3 71.2 143.3 74.85
Q 151.65 74.2 159.6 73.45 159.25 80.3 159.15 84.05 150.8 84.8 143.3 85.55
L 143.3 91.95
Q 143.1 101.2 135.05 102.15 130 102.6 120.35 102.6 119.4 97.25 118.15 91.95 124.15 92.2 127.65 92.2 131.95 92.1 131.95 88.1
L 131.95 86.7
Q 121.45 87.7 112.55 88.75
L 110.95 77.4
Q 113.6 77.3 116.1 77.1 113.3 72.05 110.75 68.1 114.8 65.4 117.7 62.85
L 111.6 62.85 111.6 53.45 127.25 53.45
Q 129.6 51 132.25 48
L 111.35 48 111.35 38.25 127.1 38.25 127.1 31.3 114.8 31.3 114.8 21.55 127.1 21.55 127.1 11.65 138.5 11.65 138.5 21.55 148.45 21.55 148.45 28.5
Q 151.1 24.95 154.15 20.15
L 163.15 25.9
Q 158.6 32.8 154.25 38.25
L 157.75 38.25 157.75 47.55
Q 165.8 30.45 169.75 11.65
L 182.2 12.85
Q 180.4 19.95 178.55 26.35
L 202.65 26.35 202.65 37.8 198.8 37.8
Q 196.9 61.95 187.85 78.5 194.3 86.1 203.4 90.9 200 94.75 195.25 103.35 186.7 97.45 180.35 89.6 172.65 98.75 161.75 104.75 157.55 98.7 152.3 93.45 164.85 87.6 172.9 77.95 168.4 69.25 165.9 58.65 164.3 61.75 162.6 64.35 159.5 58.75 155 52.9 156.25 50.55 157.45 48
L 146.3 48
Q 143.95 50.8 141.8 53.45
L 154.65 53.45 Z
M 173.2 42.2
Q 175.15 56.1 180.25 66.6 186.25 54.3 187.35 37.8
L 174.8 37.8
Q 174.05 40.05 173.2 42.2 Z
M 146.6 31.3
L 138.5 31.3 138.5 38.25 140.95 38.25
Q 143.75 35.05 146.6 31.3 Z
M 44.1 103.1
L 30.6 103.1 30.6 61.8
Q 24.4 68.2 17.35 73.85 15.85 66.25 14.15 59.2 28.05 47.2 36.75 32.45
L 15 32.45 15 20.7 42.7 20.7
Q 44.8 15.7 46.45 10.4
L 61.25 12.65
Q 59.7 16.8 58 20.7
L 106.55 20.7 106.55 32.45 52.15 32.45
Q 50.3 35.95 48.2 39.3
L 97.65 39.3 97.65 90.15
Q 97.65 96 94.85 99.2 92 102.35 87 102.8 82 103.25 67.45 103.25 66.15 96.9 63.8 90.45 71.85 90.9 78.8 90.9 84.15 90.9 84.15 85.65
L 84.15 84.05 44.1 84.05 44.1 103.1 Z
M 84.15 50.25
L 44.1 50.25 44.1 57.15 84.15 57.15 84.15 50.25 Z
M 44.1 74
L 84.15 74 84.15 67.2 44.1 67.2 44.1 74 Z
M 118.45 76.95
L 131.95 75.9 131.95 68.75 140.5 62.85 133.55 62.85
Q 126.15 70.85 118.45 76.95 Z"/>

<path id="Layer1_0_2_STROKES" stroke="#FFFFFF" stroke-width="6" stroke-linejoin="miter" stroke-linecap="square" stroke-miterlimit="3" fill="none" d="
M 890.7 124.7
Q 894.1 129.1 896.6 133.15 895.15 134.1 894 134.85 893.3 133.55 892.5 132.25 883.4 132.9 877.95 133.45
L 876.75 130.3
Q 878.4 129.45 880.35 127 882.4 124.3 884.4 121
L 887.3 122.1
Q 884.25 126.55 880.8 130.5 886.4 130.15 890.95 129.8 889.75 128 888.4 126.15
L 890.7 124.7 Z
M 846.15 124.55
L 860.3 124.55 860.3 139.75 857.55 139.75 857.55 137.5 848.9 137.5 848.9 139.75 846.15 139.75 846.15 124.55 Z
M 857.55 126.95
L 848.9 126.95 848.9 135.15 857.55 135.15 857.55 126.95 Z
M 853.95 143.65
L 834.55 143.65 834.55 147.7 853.95 147.7 853.95 143.65 Z
M 881.75 147.45
L 891 147.45 891 143.85 881.75 143.85 881.75 147.45 Z
M 891 138.05
L 881.75 138.05 881.75 141.6 891 141.6 891 138.05 Z
M 826.3 131.3
L 834.55 131.3
Q 834.8 129.6 834.9 127.35
L 831.2 127.35
Q 829.8 129.4 827.8 131.15 827.1 130.15 826.05 128.95 830 125.7 831.45 121.25
L 834.15 121.85
Q 833.55 123.5 832.75 125
L 843.85 125 843.85 127.35 837.7 127.35
Q 837.55 129.55 837.35 131.3
L 844.95 131.3 844.95 133.65 836.85 133.65
Q 836.75 134.05 836.65 134.35 840.35 136.2 844.7 138.8
L 843 141
Q 839.2 138.35 835.6 136.5 833.1 140.45 827.2 142.9 826.45 141.75 825.45 140.4 832.1 137.95 833.9 133.65
L 826.3 133.65 826.3 131.3 Z
M 785.7 142.25
L 798.55 142.25 798.55 132.9 791.5 132.9
Q 790 136.85 788.2 140 787.15 138.95 785.75 138.05 789.3 131.85 790.95 124.2
L 793.95 125.05
Q 793.25 127.8 792.4 130.3
L 798.55 130.3 798.55 121.65 801.5 121.65 801.5 130.3 810.4 130.3 810.4 132.9 801.5 132.9 801.5 142.25 811.6 142.25 811.6 144.85 801.5 144.85 801.5 157.9 798.55 157.9 798.55 144.85 785.7 144.85 785.7 142.25 Z
M 831.8 141.25
L 856.7 141.25 856.7 158.15 853.95 158.15 853.95 156.5 834.55 156.5 834.55 158.15 831.8 158.15 831.8 141.25 Z
M 834.55 154.1
L 853.95 154.1 853.95 150.05 834.55 150.05 834.55 154.1 Z
M 881.75 157.6
L 878.85 157.6 878.85 135.65 893.9 135.65 893.9 153.2
Q 893.9 157.25 890.2 157.25 888.55 157.3 886 157.3 885.8 156.15 885.45 154.5 887.8 154.7 889.2 154.7 891 154.7 891 152.75
L 891 149.65 881.75 149.65 881.75 157.6 Z
M 938.05 144.4
Q 942.9 142.15 947.15 139.2
L 947.15 122.2 950.35 122.2 950.35 136.8
Q 956 132.25 960.4 126.25
L 963.15 128.2
Q 957.75 135.4 950.35 140.75
L 950.35 151.25
Q 950.35 153.75 953 153.75
L 957.7 153.75
Q 960.25 153.75 960.65 151.35 960.8 150.7 960.9 150 961.2 148 961.3 145.55 962.85 146.15 964.6 146.6 964.45 148.4 964.2 150 964 151.25 963.8 152.35 963.1 156.65 958.45 156.65
L 952.2 156.65
Q 947.15 156.65 947.15 151.6
L 947.15 142.95
Q 943.65 145.15 939.85 147 939.05 145.8 938.05 144.4 Z
M 927.6 139.85
Q 934.1 131.3 937.1 121.65
L 940.35 122.55
Q 938.6 127.15 936.55 131.25
L 936.55 157.85 933.4 157.85 933.4 136.8
Q 931.35 140.15 929.05 143.1 928.4 141.5 927.6 139.85 Z
M 897.6 121.55
L 900.5 121.55 900.5 127.95
Q 905.6 125.9 910.6 123.05
L 912.3 125.6
Q 906.5 128.55 900.5 130.95
L 900.5 133.1
Q 900.5 135.6 902.45 135.6
L 907.15 135.6
Q 909.5 135.6 909.8 133.65 910.05 132.05 910.25 129 911.65 129.6 913.15 130.1 912.85 133.05 912.5 134.9 911.95 138.15 907.5 138.15
L 902.1 138.15
Q 897.6 138.15 897.6 133.7
L 897.6 121.55 Z
M 897.5 139.65
L 900.4 139.65 900.4 145.8
Q 905.7 143.85 911.45 140.65
L 913.1 143.2
Q 907.05 146.4 900.4 148.85
L 900.4 152.05
Q 900.4 154.45 902.25 154.45
L 907.7 154.45
Q 909.55 154.45 909.85 152.6 910.05 151.6 910.15 150 910.25 148.95 910.3 147.7 911.75 148.3 913.2 148.75 913.15 149.4 913.1 150 912.85 152.4 912.6 153.7 912.1 157 907.95 157
L 901.75 157
Q 897.5 157 897.5 152.6
L 897.5 139.65 Z
M 698.95 128.55
Q 703.7 131.8 708.3 135.35
L 706.2 137.45
Q 704.65 136.1 703 134.75 688.45 134.85 680.85 135.2 678.5 135.3 676.85 135.6
L 675.8 132.45
Q 678.35 132 679.9 131.05 682.1 129.75 684.25 127.95
L 673.15 127.95 673.15 125.35 690.5 125.35
Q 689.75 124 688.8 122.5
L 691.35 121.25
Q 693.05 123.85 693.85 125.35
L 709.15 125.35 709.15 127.95 688.65 127.95
Q 685 130.55 682 132.45 690.65 132.45 699.7 132.3 698.5 131.4 697.2 130.45
L 698.95 128.55 Z
M 701.55 140.25
L 680.85 140.25 680.85 143.4 701.55 143.4 701.55 140.25 Z
M 727.6 138.95
L 732.1 138.95 732.1 131.45 734.7 131.45 734.7 138.95 739.8 138.95 739.8 141.4 734.7 141.4 734.7 147
Q 737.8 146.65 740.75 146.3 740.6 147.7 740.5 148.9 737.75 149.15 734.7 149.55
L 734.7 158 732.1 158 732.1 149.85
Q 731.5 149.9 730.85 150 727.6 150.4 724.1 150.9
L 723.75 148.1
Q 728.05 147.7 732.1 147.25
L 732.1 141.4 724.8 141.4 724.8 139.05
Q 726.85 133.8 728.3 129.6
L 724.35 129.6 724.35 127.15 729.1 127.15
Q 730.15 123.8 730.7 121.2
L 733.7 121.8
Q 732.8 124.5 731.9 127.15
L 739.65 127.15 739.65 129.6 731.1 129.6
Q 729.4 134.4 727.6 138.95 Z
M 638.8 140.25
Q 643 132.55 645.55 122.1
L 648.25 122.75
Q 647.5 125.8 646.55 128.8
L 658.1 128.8 658.1 131.45 654.45 131.45
Q 654.2 141.05 649.8 147.95 650.6 149.05 651.5 150 654.45 153.2 658.65 155.25 657.65 156.75 656.9 158 651.5 154.85 648.1 150.3 644.35 155.05 638.35 158.35 637.7 157.4 636.55 155.9 641.3 153.45 644.6 150 645.6 148.95 646.45 147.85 643.85 143.55 642.95 138.1 642.1 139.9 641.2 141.7 640 140.9 638.8 140.25 Z
M 644.8 133.6
Q 645.55 140.4 648.15 145.3 651.55 139.45 651.75 131.45
L 645.6 131.45
Q 645.25 132.55 644.8 133.6 Z
M 678 137.75
L 704.4 137.75 704.4 153.05
Q 704.4 157.5 699.2 157.5 697.45 157.5 694.9 157.45 694.85 157.1 694.35 154.4 696.9 154.8 699 154.8 701.5 154.8 701.55 152.6
L 701.55 151.45 680.85 151.45 680.85 157.85 678 157.85 678 137.75 Z
M 680.85 149
L 701.55 149 701.55 145.85 680.85 145.85 680.85 149 Z
M 774.5 140.05
Q 779.65 132.45 782.75 121.7
L 785.8 122.6
Q 784.4 126.95 782.8 130.7
L 782.8 157.95 779.9 157.95 779.9 136.85
Q 778 140.35 775.85 143.25 775.3 141.7 774.5 140.05 Z
M 738 135.95
Q 742.05 130.1 744.8 121.2
L 747.75 121.95
Q 746.7 124.85 745.65 127.45
L 760.2 127.45 760.2 129.95 756.35 137.1 753.45 136.5 756.8 130 744.5 130
Q 742.6 134.2 740.55 137.5 739.45 136.8 738 135.95 Z
M 747.3 131.9
L 750.2 131.9
Q 750.2 135.75 750.05 139 751.6 145.8 754.65 150 757.3 153.7 761.05 155.4 759.85 156.7 758.7 158 754.05 155.4 751.2 150 749.9 147.6 749 144.6 748.35 147.5 746.9 150 744.05 154.8 738.35 158.25 737.5 157 736.45 155.8 740.8 153.4 743.4 150 746.85 145.45 747.2 139.2 747.3 136.9 747.3 131.9 Z
M 537.9 129.5
L 542.15 129.5
Q 542.25 125.7 542.25 121.8
L 545.25 121.8
Q 545.2 125.6 545.15 129.5
L 554.6 129.5
Q 554.15 144.8 553.95 150 553.9 150.9 553.85 151.5 553.55 157.25 548.75 157.3 547.5 157.3 543.7 157.15 543.45 155.45 543.1 153.75 546.1 154.25 548.3 154.25 550.65 154.25 550.9 151.1 550.95 150.6 551 150 551.25 144.95 551.6 132.2
L 545.05 132.2
Q 544.95 141.6 543.85 146 543.35 148.1 542.55 150 540.5 154.65 536.5 158.15 535.75 156.85 534.6 155.45 536.7 153.75 538.2 151.65 530.05 152.8 520.2 154.35
L 519.75 151.3
Q 521.3 151.15 522.85 151
L 522.85 124.05 535.9 124.05 535.9 149.35
Q 537.2 149.15 538.5 148.95 538.45 149.35 538.45 150 538.4 150.6 538.35 151.4 538.8 150.75 539.2 150 540.35 147.85 540.95 145.3 542 141.3 542.1 132.2
L 537.9 132.2 537.9 129.5 Z
M 533.1 126.55
L 525.65 126.55 525.65 132.7 533.1 132.7 533.1 126.55 Z
M 525.65 141.3
L 533.1 141.3 533.1 135.15 525.65 135.15 525.65 141.3 Z
M 533.1 149.7
L 533.1 143.75 525.65 143.75 525.65 150.7
Q 528.3 150.4 531 150 532.05 149.85 533.1 149.7 Z
M 639.95 125.25
L 642.15 126.7
Q 639.9 130.1 637.1 133.4
L 639.85 133.4 639.85 135.85 635 135.85
Q 633.5 137.5 631.95 139.1
L 638.05 139.1 638.05 141.3 633.25 146 633.25 146.7
Q 636.25 146.15 639.9 145.5 639.8 146.9 639.75 148.05 636.7 148.6 633.25 149.2
L 633.25 153.25
Q 633.5 157.9 628.95 157.7 627.35 157.7 624.8 157.65 624.7 156.45 624.45 154.85 626.2 155.05 628.4 155.1 630.75 155.3 630.6 152.95
L 630.6 149.7
Q 629.8 149.85 628.95 150 626.1 150.55 623 151.15
L 622.55 148.45
Q 625.65 148 630.6 147.15
L 630.6 145.3 634.45 141.45 629.5 141.45
Q 626.4 144.25 623.35 146.65 622.6 145.6 621.6 144.55 623.75 143 625.6 141.45
L 622.5 141.45 622.5 139.1 628.3 139.1
Q 630 137.5 631.65 135.85
L 622.05 135.85 622.05 133.4 629.35 133.4 629.35 129.6 623.55 129.6 623.55 127.15 629.35 127.15 629.35 122.1 632 122.1 632 127.15 636.6 127.15 636.6 129.6 632 129.6 632 133.4 633.85 133.4
Q 637.2 129.65 639.95 125.25 Z
M 572.55 129.8
L 584.55 129.8
Q 584.65 125.7 584.7 121.5
L 587.95 121.5
Q 587.85 125.4 587.75 129.8
L 604.75 129.8
Q 604.35 143.95 603.95 150 603.9 150.15 603.9 150.3 603.45 156.75 597.1 156.85 594.05 156.85 589.75 156.7 589.6 155.25 589.2 153.1
L 589.3 153.1
Q 594.1 153.55 596.8 153.5 600.2 153.45 600.7 150 600.75 149.8 600.75 149.55 601.2 142.9 601.45 132.85
L 587.65 132.85
Q 587.35 142.5 584.6 147.4 583.9 148.7 582.85 150 579.6 154.05 573.15 157.85 572.1 156.55 570.95 155.05 575.35 152.55 578.15 150 580.35 147.95 581.5 145.85 584.1 141.7 584.45 132.85
L 572.55 132.85 572.55 129.8 Z
M 395.5 127.6
L 374.45 127.6 374.45 130.7 395.5 130.7 395.5 127.6 Z
M 369.95 146.4
L 372.65 147.3
Q 372.15 148.7 371.65 150 370.45 152.9 369.25 155.5 368.05 154.95 366.5 154.4 367.55 152.45 368.6 150 369.3 148.3 369.95 146.4 Z
M 371.55 125.1
L 380.65 125.1
Q 381.45 123.1 381.95 121.25
L 384.85 122.05
Q 384.25 123.6 383.55 125.1
L 398.35 125.1 398.35 145.35 395.5 145.35 395.5 144.2 374.45 144.2 374.45 145.35 371.55 145.35 371.55 125.1 Z
M 374.45 141.7
L 395.5 141.7 395.5 138.55 374.45 138.55 374.45 141.7 Z
M 381.95 146.35
L 383.95 144.65
Q 386.25 146.7 388.95 149.6
L 386.65 151.55
Q 385.95 150.75 385.35 150 383.45 147.8 381.95 146.35 Z
M 375.45 146.75
L 378.3 146.75 378.3 152.2
Q 378.3 154.55 380.75 154.55
L 388.95 154.55
Q 391.95 154.55 392.4 152.45 392.7 151.55 392.95 150 393.05 149.3 393.15 148.45 394.55 149 396.05 149.5 396 149.75 395.95 150 395.55 152.2 395.15 153.65 394.3 157.2 389.65 157.2
L 380.3 157.2
Q 375.45 157.2 375.45 152.55
L 375.45 146.75 Z
M 374.45 136.2
L 395.5 136.2 395.5 133.05 374.45 133.05 374.45 136.2 Z
M 396.55 147.6
L 398.7 145.9
Q 400.5 147.8 402.3 150 403.2 151.05 404.1 152.2
L 401.7 154.05
Q 400.15 151.95 398.6 150 397.6 148.75 396.55 147.6 Z
M 326.4 126.5
L 338.5 126.5
Q 337.4 124.6 336.2 122.7
L 338.7 121.4
Q 340.05 123.4 341.35 125.65
L 339.7 126.5 352.55 126.5 352.55 129.1 326.4 129.1 326.4 126.5 Z
M 328.45 132.55
L 350.35 132.55 350.35 135.05 328.45 135.05 328.45 132.55 Z
M 328.45 138.5
L 350.35 138.5 350.35 141.05 328.45 141.05 328.45 138.5 Z
M 347.1 147.05
L 331.7 147.05 331.7 153.35 347.1 153.35 347.1 147.05 Z
M 328.85 144.55
L 349.95 144.55 349.95 158.15 347.1 158.15 347.1 155.95 331.7 155.95 331.7 158.15 328.85 158.15 328.85 144.55 Z
M 428.1 144.4
Q 432.95 142.15 437.2 139.2
L 437.2 122.2 440.4 122.2 440.4 136.8
Q 446.05 132.25 450.45 126.25
L 453.2 128.2
Q 447.8 135.4 440.4 140.75
L 440.4 151.25
Q 440.4 153.75 443.05 153.75
L 447.75 153.75
Q 450.3 153.75 450.7 151.35 450.85 150.7 450.95 150 451.25 148 451.35 145.55 452.9 146.15 454.65 146.6 454.5 148.4 454.25 150 454.05 151.25 453.85 152.35 453.15 156.65 448.5 156.65
L 442.25 156.65
Q 437.2 156.65 437.2 151.6
L 437.2 142.95
Q 433.7 145.15 429.9 147 429.1 145.8 428.1 144.4 Z
M 479.6 148.45
L 476.5 158.4 473.9 158.4 476.15 148.45 479.6 148.45 Z
M 417.65 139.85
Q 424.15 131.3 427.15 121.65
L 430.4 122.55
Q 428.65 127.15 426.6 131.25
L 426.6 157.85 423.45 157.85 423.45 136.8
Q 421.4 140.15 419.1 143.1 418.45 141.5 417.65 139.85 Z
M 214.55 125.75
L 231.5 125.75
Q 230.7 124.25 229.7 122.65
L 232.45 121.25
Q 233.65 123.25 234.95 125.75
L 250.35 125.75 250.35 128.4 214.55 128.4 214.55 125.75 Z
M 217.6 136.35
L 235.15 136.35
Q 237.65 132.7 239.65 129
L 242.5 130.85
Q 240.55 133.6 238.4 136.35
L 249.4 136.35 249.4 138.95 220.6 138.95 220.6 141.55
Q 220.6 146.9 219.95 150 219.8 150.75 219.6 151.35 218.6 155 215.7 158.15 214.7 157 213.7 155.65 215.85 153.25 216.75 150.1 216.75 150.05 216.8 150 217.6 146.9 217.6 141.55
L 217.6 136.35 Z
M 222.35 130.5
L 224.8 128.85
Q 227.1 131.75 228.85 134.35
L 226.25 136.2
Q 224.8 133.75 222.35 130.5 Z
M 189.05 128.55
Q 193.8 131.8 198.4 135.35
L 196.3 137.45
Q 194.75 136.1 193.1 134.75 178.55 134.85 170.9 135.2 168.55 135.3 166.9 135.6
L 165.85 132.45
Q 168.4 132 169.95 131.05 172.2 129.75 174.35 127.95
L 163.2 127.95 163.2 125.35 180.6 125.35
Q 179.85 124 178.9 122.5
L 181.45 121.25
Q 183.15 123.85 183.95 125.35
L 199.25 125.35 199.25 127.95 178.75 127.95
Q 175.1 130.55 172.05 132.45 180.75 132.45 189.8 132.3 188.6 131.4 187.3 130.45
L 189.05 128.55 Z
M 191.65 140.25
L 170.9 140.25 170.9 143.4 191.65 143.4 191.65 140.25 Z
M 170.9 149
L 191.65 149 191.65 145.85 170.9 145.85 170.9 149 Z
M 168.05 137.75
L 194.5 137.75 194.5 153.05
Q 194.5 157.5 189.3 157.5 187.55 157.5 185 157.45 184.95 157.1 184.45 154.4 187 154.8 189.1 154.8 191.6 154.8 191.65 152.6
L 191.65 151.45 170.9 151.45 170.9 157.85 168.05 157.85 168.05 137.75 Z
M 264.9 152.75
L 276.8 152.75 276.8 122.1 279.95 122.1 279.95 152.75 286.45 152.75 286.45 122.1 289.55 122.1 289.55 152.75 301.55 152.75 301.55 155.55 264.9 155.55 264.9 152.75 Z
M 290.9 144.95
Q 294.6 137.05 297.1 129.75
L 300.1 130.9
Q 296.65 139.8 293.55 146.15
L 290.9 144.95 Z
M 315.7 139.4
Q 321.15 131.3 323.9 121.5
L 326.8 122.3
Q 325.15 127.3 323.25 131.5
L 323.25 158.15 320.5 158.15 320.5 136.95
Q 318.8 139.95 316.9 142.4 316.3 140.85 315.7 139.4 Z
M 269.2 129.4
Q 272.25 136.55 275.1 144.6
L 272.05 146
Q 269.6 138.15 266.5 130.6
L 269.2 129.4 Z
M 62.6 129.8
L 74.6 129.8
Q 74.7 125.7 74.75 121.5
L 78 121.5
Q 77.9 125.4 77.8 129.8
L 94.8 129.8
Q 94.4 143.95 94 150 93.95 150.15 93.95 150.3 93.5 156.75 87.15 156.85 84.1 156.85 79.8 156.7 79.65 155.25 79.25 153.1
L 79.35 153.1
Q 84.15 153.55 86.85 153.5 90.25 153.45 90.75 150 90.8 149.8 90.8 149.55 91.25 142.9 91.5 132.85
L 77.7 132.85
Q 77.4 142.5 74.65 147.4 73.95 148.7 72.9 150 69.65 154.05 63.2 157.85 62.15 156.55 61 155.05 65.4 152.55 68.2 150 70.4 147.95 71.55 145.85 74.15 141.7 74.5 132.85
L 62.6 132.85 62.6 129.8 Z
M 27.05 134.9
Q 30.6 128.65 32.9 121.2
L 35.6 122.1
Q 34.55 125.2 33.35 128
L 46.1 128 46.1 130.65 42.65 130.65
Q 42.3 142.45 38.15 148.75 38.7 149.4 39.35 150 42.5 153.15 46.85 155.2 45.65 156.7 44.6 157.9 39.4 154.9 36.35 151.2 33.2 154.9 27.15 158.3 26.6 157.35 25.35 155.8 30.7 153 33.65 150 34.2 149.45 34.65 148.9 30.95 143.65 30.05 134.75 29.45 135.85 28.85 136.9 28.15 136.05 27.05 134.9 Z
M 10.35 123.5
L 27.85 123.5 27.85 126.15 19.4 126.15
Q 16.75 131.5 14.8 134.65 19.3 134.45 22.85 134.25 21.8 132 20.7 129.85
L 23.05 128.7
Q 25.65 133.6 27.7 138.35 26.3 139.05 25.15 139.6 24.55 138.1 23.9 136.65 18.45 137.05 14.35 137.5 12.85 137.75 11.7 138.1
L 10.35 135.55
Q 11.65 134.8 12.55 133.45 14.35 130.55 16.3 126.15
L 10.35 126.15 10.35 123.5 Z
M 9.9 152.75
Q 13.65 152.4 17.5 152
L 17.5 145.7 10.7 145.7 10.7 143.1 17.5 143.1 17.5 138.45 20.4 138.45 20.4 143.1 27.4 143.1 27.4 145.7 20.4 145.7 20.4 151.7
Q 24 151.25 27.7 150.75 27.75 151.55 27.9 153.4 20 154.55 10.6 155.7
L 9.9 152.75 Z
M 36.35 146.45
Q 39.55 141 39.8 130.65
L 32.3 130.65
Q 32.8 141.2 36.35 146.45 Z
M 128.85 140.25
Q 133.05 132.55 135.6 122.1
L 138.3 122.75
Q 137.55 125.8 136.6 128.8
L 148.15 128.8 148.15 131.45 144.5 131.45
Q 144.25 141.05 139.85 147.95 140.65 149.05 141.55 150 144.5 153.2 148.7 155.25 147.7 156.75 146.95 158 141.55 154.85 138.15 150.3 134.4 155.05 128.4 158.35 127.75 157.4 126.6 155.9 131.35 153.45 134.65 150 135.65 148.95 136.5 147.85 133.9 143.55 133 138.1 132.15 139.9 131.25 141.7 130.05 140.9 128.85 140.25 Z
M 134.85 133.6
Q 135.6 140.4 138.2 145.3 141.6 139.45 141.8 131.45
L 135.65 131.45
Q 135.3 132.55 134.85 133.6 Z
M 130 125.25
L 132.2 126.7
Q 129.95 130.1 127.15 133.4
L 129.9 133.4 129.9 135.85 125.05 135.85
Q 123.55 137.5 122 139.1
L 128.1 139.1 128.1 141.3 123.3 146 123.3 146.7
Q 126.3 146.15 129.95 145.5 129.85 146.9 129.8 148.05 126.75 148.6 123.3 149.2
L 123.3 153.25
Q 123.55 157.9 119 157.7 117.4 157.7 114.85 157.65 114.75 156.45 114.5 154.85 116.25 155.05 118.45 155.1 120.8 155.3 120.65 152.95
L 120.65 149.7
Q 119.85 149.85 119 150 116.15 150.55 113.05 151.15
L 112.6 148.45
Q 115.7 148 120.65 147.15
L 120.65 145.3 124.5 141.45 119.55 141.45
Q 116.45 144.25 113.4 146.65 112.65 145.6 111.65 144.55 113.8 143 115.65 141.45
L 112.55 141.45 112.55 139.1 118.35 139.1
Q 120.05 137.5 121.7 135.85
L 112.1 135.85 112.1 133.4 119.4 133.4 119.4 129.6 113.6 129.6 113.6 127.15 119.4 127.15 119.4 122.1 122.05 122.1 122.05 127.15 126.65 127.15 126.65 129.6 122.05 129.6 122.05 133.4 123.9 133.4
Q 127.25 129.65 130 125.25 Z"/>
</defs>

<g transform="matrix( 1, 0, 0, 1, 0,0) ">
<use xlink:href="#Layer1_0_FILL"/>

<use xlink:href="#Layer1_0_1_STROKES"/>

<use xlink:href="#Layer1_0_2_STROKES"/>
</g>

<g transform="matrix( 1, 0, 0, 1, 0,0) ">
<use xlink:href="#Layer0_0_FILL"/>
</g>
</svg>
